<svg width="900" height="800" viewBox="0 0 900 800" fill="none" xmlns="http://www.w3.org/2000/svg">
<rect width="900" height="800" fill="white"/>
<g filter="url(#filter0_d_87_473)">
<g filter="url(#filter1_dii_87_473)">
<path d="M486.939 380.5C520.483 373.067 542.076 356.629 569.016 318.032C569.657 318.911 570.303 319.65 570.787 320.484C576.896 331.008 582.934 341.574 589.111 352.057C590.333 354.131 590.386 355.763 589.144 357.861C584.025 366.509 579.002 375.214 574.075 383.972C569.915 391.366 563.771 394.895 555.243 394.799C532.613 394.544 509.968 394.888 487.353 394.195C470.074 393.666 453.197 390.265 437.232 383.225C436.046 382.703 434.889 382.117 433.738 381.048C451.42 383.302 469.057 384.383 486.939 380.5Z" fill="#090912"/>
</g>
<g filter="url(#filter2_dii_87_473)">
<path d="M452.809 406.228C466.135 410.176 479.433 412.106 493.723 411.965C492.038 415.03 490.604 417.735 489.081 420.388C483.943 429.334 478.844 438.305 473.527 447.144C472.834 448.295 470.959 449.371 469.614 449.394C459.029 449.569 448.439 449.476 437.851 449.471C430.668 449.468 424.78 446.658 421.235 440.423C408.627 418.249 395.949 396.102 383.932 373.607C377.75 362.036 374.05 349.387 371.93 336.365C371.426 333.269 370.877 330.18 370.349 327.087C370.853 326.936 371.357 326.785 371.861 326.634C372.392 327.817 372.99 328.975 373.444 330.187C382.177 353.529 395.71 373.342 416.013 388.191C427.123 396.316 439.377 402.114 452.809 406.228Z" fill="#0059B7"/>
</g>
<g filter="url(#filter3_dii_87_473)">
<path d="M337.437 394.087C332.549 394.988 330.226 392.713 328.191 388.884C323.785 380.593 318.901 372.555 314.206 364.418C310.875 358.645 309.769 352.323 313.103 346.576C327.634 321.534 340.207 295.24 358.189 272.366C364.922 263.801 373.357 256.565 381.122 248.829C382.513 247.443 384.42 246.576 386.608 245.772C349.009 292.326 346.269 341.561 374.246 394.087C361.988 394.087 349.901 394.087 337.437 394.087Z" fill="#090912"/>
</g>
<g filter="url(#filter4_dii_87_473)">
<path d="M453.337 149.682C454.66 149.682 455.595 149.762 456.512 149.67C468.171 148.504 475.943 153.347 481.494 163.795C491.725 183.052 503.112 201.694 513.382 220.931C521.534 236.2 526.794 252.571 528.516 269.93C528.607 270.85 528.678 271.774 528.707 272.698C528.723 273.189 528.628 273.683 528.276 274.34C519.214 248.214 504.84 225.941 481.94 209.927C459.214 194.034 433.632 187.273 405.605 187.172C412.77 174.758 419.585 162.858 426.565 151.057C427.053 150.232 428.762 149.772 429.913 149.754C437.587 149.637 445.264 149.687 453.337 149.682Z" fill="#090912"/>
</g>
<g filter="url(#filter5_dii_87_473)">
<path d="M558.717 301.17C543.898 326.935 520.912 352.625 512.479 352.984C550.579 306.904 553.216 257.652 525.32 205.167C527.05 205.167 528.562 205.168 530.074 205.167C541.585 205.162 553.097 205.223 564.608 205.102C567.122 205.075 568.66 205.699 569.955 208.045C574.745 216.727 579.668 225.342 584.781 233.837C589.451 241.595 588.99 248.974 584.468 256.636C575.804 271.32 567.39 286.153 558.717 301.17Z" fill="#0059B7"/>
</g>
<g filter="url(#filter6_dii_87_473)">
<path d="M312.893 251.2C308.711 246.409 309.314 242.234 312.63 237.253C317.677 229.671 321.805 221.483 326.473 213.641C329.902 207.88 335.17 204.522 341.829 204.527C366.182 204.547 390.545 204.531 414.886 205.212C428.673 205.597 442.221 208.374 455.244 213.151C458.493 214.343 461.567 216.01 464.827 218.126C405.447 208.286 361.685 231.187 330.231 281.328C324.472 271.321 318.754 261.387 312.893 251.2Z" fill="#0059B7"/>
</g>
</g>
<g filter="url(#filter7_ii_87_473)">
<path d="M156.913 555.47H165.823L185.263 584.144C186.343 585.764 187.342 587.384 188.26 589.004C189.178 590.57 189.907 591.866 190.447 592.892H190.609C190.285 589.166 190.123 585.44 190.123 581.714C190.123 577.934 190.123 574.181 190.123 570.455V555.47H199.438V606.5H190.528L171.979 579.365C170.737 577.529 169.549 575.612 168.415 573.614C167.335 571.616 166.498 569.996 165.904 568.754H165.742C166.012 572.75 166.147 576.638 166.147 580.418C166.201 584.144 166.228 587.951 166.228 591.839V606.5H156.913V555.47ZM216.845 591.11C216.845 594.134 217.844 596.402 219.842 597.914C221.84 599.426 224.486 600.182 227.78 600.182C230.156 600.182 232.262 599.75 234.098 598.886C235.988 597.968 237.419 596.888 238.391 595.646L224.135 581.066C222.191 581.984 220.49 583.253 219.032 584.873C217.574 586.493 216.845 588.572 216.845 591.11ZM207.611 591.353C207.611 584.495 211.634 579.311 219.68 575.801C218.384 574.451 217.223 572.804 216.197 570.86C215.225 568.916 214.739 566.837 214.739 564.623C214.739 562.733 215.09 561.032 215.792 559.52C216.494 557.954 217.493 556.631 218.789 555.551C220.085 554.471 221.624 553.661 223.406 553.121C225.188 552.527 227.159 552.23 229.319 552.23C231.317 552.23 233.18 552.527 234.908 553.121C236.636 553.715 238.121 554.552 239.363 555.632C240.605 556.712 241.577 557.981 242.279 559.439C243.035 560.897 243.413 562.517 243.413 564.299C243.413 567.053 242.63 569.375 241.064 571.265C239.552 573.155 237.689 574.64 235.475 575.72L230.939 570.941C232.073 570.293 233.018 569.402 233.774 568.268C234.53 567.134 234.908 565.865 234.908 564.461C234.908 562.841 234.368 561.491 233.288 560.411C232.208 559.331 230.831 558.791 229.157 558.791C227.267 558.791 225.863 559.304 224.945 560.33C224.027 561.356 223.568 562.706 223.568 564.38C223.568 566.378 224.108 568.241 225.188 569.969C226.322 571.697 228.023 573.695 230.291 575.963L243.332 589.328C244.088 588.086 244.844 586.601 245.6 584.873C246.356 583.091 247.031 581.39 247.625 579.77L254.834 582.686C254.024 585.008 253.052 587.276 251.918 589.49C250.784 591.704 249.758 593.513 248.84 594.917L260.18 606.5H249.002L243.494 600.911C241.982 602.531 239.795 604.016 236.933 605.366C234.125 606.662 230.696 607.31 226.646 607.31C223.73 607.31 221.084 606.932 218.708 606.176C216.386 605.42 214.388 604.34 212.714 602.936C211.094 601.532 209.825 599.858 208.907 597.914C208.043 595.97 207.611 593.783 207.611 591.353ZM265.915 555.47H283.168C286.03 555.47 288.622 555.821 290.944 556.523C293.266 557.225 295.264 558.251 296.938 559.601C298.612 560.897 299.881 562.517 300.745 564.461C301.663 566.351 302.122 568.538 302.122 571.022C302.122 573.884 301.609 576.341 300.583 578.393C299.557 580.445 298.153 582.173 296.371 583.577C294.589 584.927 292.483 585.926 290.053 586.574C287.623 587.222 285.004 587.546 282.196 587.546H275.797V606.5H265.915V555.47ZM275.797 579.851H280.333C281.953 579.851 283.465 579.716 284.869 579.446C286.273 579.176 287.488 578.717 288.514 578.069C289.594 577.421 290.431 576.557 291.025 575.477C291.619 574.397 291.916 573.047 291.916 571.427C291.916 569.969 291.646 568.727 291.106 567.701C290.566 566.621 289.81 565.757 288.838 565.109C287.92 564.407 286.84 563.894 285.598 563.57C284.356 563.246 283.06 563.084 281.71 563.084H275.797V579.851ZM345.215 586.574H359.39L356.717 579.041C355.961 576.773 355.232 574.64 354.53 572.642C353.882 570.644 353.207 568.457 352.505 566.081H352.343C351.587 568.295 350.858 570.455 350.156 572.561C349.454 574.613 348.698 576.773 347.888 579.041L345.215 586.574ZM347.645 555.47H357.527L376.886 606.5H366.437L361.901 593.945H342.866L338.33 606.5H328.043L347.645 555.47ZM407.76 568.025H417.318V606.5H410.109L408.975 602.045H408.651C407.409 603.341 405.762 604.556 403.71 605.69C401.658 606.77 399.093 607.31 396.015 607.31C391.965 607.31 388.725 606.176 386.295 603.908C383.865 601.64 382.65 598.238 382.65 593.702V568.025H392.208V592.73C392.208 595.376 392.802 597.266 393.99 598.4C395.232 599.48 396.798 600.02 398.688 600.02C400.686 600.02 402.414 599.615 403.872 598.805C405.384 597.941 406.68 596.888 407.76 595.646V568.025ZM449.532 574.991H438.921V594.269C438.921 596.105 439.353 597.374 440.217 598.076C441.135 598.724 442.296 599.048 443.7 599.048C444.78 599.048 445.914 598.94 447.102 598.724C448.29 598.508 449.289 598.211 450.099 597.833L451.557 604.637C450.531 605.069 449.127 605.501 447.345 605.933C445.617 606.311 443.754 606.5 441.756 606.5C437.382 606.5 434.223 605.609 432.279 603.827C430.389 602.045 429.444 599.372 429.444 595.808V574.991H423.612V568.025H429.444V556.037H438.921V568.025H449.532V574.991ZM494.648 586.979C494.648 590.165 494.135 593.027 493.109 595.565C492.137 598.103 490.76 600.236 488.978 601.964C487.196 603.692 485.117 605.015 482.741 605.933C480.365 606.851 477.8 607.31 475.046 607.31C472.292 607.31 469.727 606.878 467.351 606.014C465.029 605.15 463.004 603.908 461.276 602.288C459.548 600.614 458.198 598.562 457.226 596.132C456.254 593.702 455.768 590.921 455.768 587.789C455.768 584.549 456.254 581.66 457.226 579.122C458.252 576.53 459.656 574.37 461.438 572.642C463.22 570.914 465.299 569.591 467.675 568.673C470.051 567.755 472.616 567.296 475.37 567.296C478.124 567.296 480.662 567.728 482.984 568.592C485.36 569.402 487.412 570.644 489.14 572.318C490.868 573.992 492.218 576.044 493.19 578.474C494.162 580.904 494.648 583.739 494.648 586.979ZM484.766 587.384C484.766 585.062 484.496 583.091 483.956 581.471C483.416 579.797 482.687 578.447 481.769 577.421C480.905 576.395 479.879 575.639 478.691 575.153C477.557 574.667 476.369 574.424 475.127 574.424C473.885 574.424 472.697 574.64 471.563 575.072C470.429 575.45 469.43 576.152 468.566 577.178C467.702 578.15 467 579.473 466.46 581.147C465.92 582.821 465.65 584.9 465.65 587.384C465.65 589.652 465.92 591.596 466.46 593.216C467 594.782 467.702 596.105 468.566 597.185C469.484 598.211 470.51 598.967 471.644 599.453C472.832 599.939 474.047 600.182 475.289 600.182C476.477 600.182 477.638 599.966 478.772 599.534C479.96 599.102 480.986 598.4 481.85 597.428C482.714 596.456 483.416 595.16 483.956 593.54C484.496 591.866 484.766 589.814 484.766 587.384ZM512.205 606.5H502.647V568.025H510.018L511.233 573.128C513.015 571.346 514.932 569.942 516.984 568.916C519.036 567.836 521.412 567.296 524.112 567.296C526.812 567.296 529.08 567.836 530.916 568.916C532.752 569.942 534.129 571.427 535.047 573.371C536.883 571.481 538.908 569.996 541.122 568.916C543.336 567.836 545.766 567.296 548.412 567.296C552.462 567.296 555.54 568.403 557.646 570.617C559.752 572.831 560.805 575.99 560.805 580.094V606.5H551.247V581.39C551.247 579.338 550.761 577.718 549.789 576.53C548.817 575.342 547.332 574.748 545.334 574.748C543.768 574.748 542.202 575.126 540.636 575.882C539.07 576.638 537.666 577.718 536.424 579.122C536.478 579.5 536.505 579.851 536.505 580.175C536.505 580.445 536.505 580.769 536.505 581.147V606.5H526.947V581.39C526.947 579.338 526.461 577.718 525.489 576.53C524.517 575.342 523.032 574.748 521.034 574.748C519.468 574.748 517.902 575.18 516.336 576.044C514.824 576.854 513.447 577.988 512.205 579.446V606.5ZM571.558 571.427C573.934 570.131 576.337 569.132 578.767 568.43C581.197 567.674 583.87 567.296 586.786 567.296C589.054 567.296 591.106 567.566 592.942 568.106C594.778 568.592 596.371 569.402 597.721 570.536C599.071 571.67 600.097 573.155 600.799 574.991C601.555 576.773 601.933 578.96 601.933 581.552V606.5H594.4L593.428 602.45H593.185C590.431 605.69 586.516 607.31 581.44 607.31C577.39 607.31 574.231 606.257 571.963 604.151C569.695 601.991 568.561 599.21 568.561 595.808C568.561 593.648 569.02 591.785 569.938 590.219C570.856 588.653 572.098 587.357 573.664 586.331C575.284 585.305 577.201 584.549 579.415 584.063C581.629 583.523 584.032 583.253 586.624 583.253H592.294V580.58C592.294 578.474 591.673 576.989 590.431 576.125C589.189 575.207 587.515 574.748 585.409 574.748C583.897 574.748 582.277 574.991 580.549 575.477C578.875 575.963 577.012 576.8 574.96 577.988L571.558 571.427ZM592.375 589.328L588.001 589.49C584.437 589.598 581.953 590.219 580.549 591.353C579.145 592.433 578.443 593.756 578.443 595.322C578.443 597.32 579.037 598.67 580.225 599.372C581.413 600.074 582.79 600.425 584.356 600.425C585.922 600.425 587.407 600.047 588.811 599.291C590.269 598.481 591.457 597.374 592.375 595.97V589.328ZM634.314 574.991H623.703V594.269C623.703 596.105 624.135 597.374 624.999 598.076C625.917 598.724 627.078 599.048 628.482 599.048C629.562 599.048 630.696 598.94 631.884 598.724C633.072 598.508 634.071 598.211 634.881 597.833L636.339 604.637C635.313 605.069 633.909 605.501 632.127 605.933C630.399 606.311 628.536 606.5 626.538 606.5C622.164 606.5 619.005 605.609 617.061 603.827C615.171 602.045 614.226 599.372 614.226 595.808V574.991H608.394V568.025H614.226V556.037H623.703V568.025H634.314V574.991ZM643.627 606.5V568.025H653.185V606.5H643.627ZM648.406 559.196C646.732 559.196 645.409 558.71 644.437 557.738C643.519 556.766 643.06 555.551 643.06 554.093C643.06 552.689 643.546 551.501 644.518 550.529C645.49 549.503 646.786 548.99 648.406 548.99C649.972 548.99 651.241 549.476 652.213 550.448C653.185 551.42 653.671 552.635 653.671 554.093C653.671 555.551 653.185 556.766 652.213 557.738C651.241 558.71 649.972 559.196 648.406 559.196ZM700.944 586.979C700.944 590.165 700.431 593.027 699.405 595.565C698.433 598.103 697.056 600.236 695.274 601.964C693.492 603.692 691.413 605.015 689.037 605.933C686.661 606.851 684.096 607.31 681.342 607.31C678.588 607.31 676.023 606.878 673.647 606.014C671.325 605.15 669.3 603.908 667.572 602.288C665.844 600.614 664.494 598.562 663.522 596.132C662.55 593.702 662.064 590.921 662.064 587.789C662.064 584.549 662.55 581.66 663.522 579.122C664.548 576.53 665.952 574.37 667.734 572.642C669.516 570.914 671.595 569.591 673.971 568.673C676.347 567.755 678.912 567.296 681.666 567.296C684.42 567.296 686.958 567.728 689.28 568.592C691.656 569.402 693.708 570.644 695.436 572.318C697.164 573.992 698.514 576.044 699.486 578.474C700.458 580.904 700.944 583.739 700.944 586.979ZM691.062 587.384C691.062 585.062 690.792 583.091 690.252 581.471C689.712 579.797 688.983 578.447 688.065 577.421C687.201 576.395 686.175 575.639 684.987 575.153C683.853 574.667 682.665 574.424 681.423 574.424C680.181 574.424 678.993 574.64 677.859 575.072C676.725 575.45 675.726 576.152 674.862 577.178C673.998 578.15 673.296 579.473 672.756 581.147C672.216 582.821 671.946 584.9 671.946 587.384C671.946 589.652 672.216 591.596 672.756 593.216C673.296 594.782 673.998 596.105 674.862 597.185C675.78 598.211 676.806 598.967 677.94 599.453C679.128 599.939 680.343 600.182 681.585 600.182C682.773 600.182 683.934 599.966 685.068 599.534C686.256 599.102 687.282 598.4 688.146 597.428C689.01 596.456 689.712 595.16 690.252 593.54C690.792 591.866 691.062 589.814 691.062 587.384ZM718.502 606.5H708.944V568.025H716.396L717.611 573.128C719.447 571.292 721.418 569.861 723.524 568.835C725.63 567.809 727.979 567.296 730.571 567.296C734.729 567.296 737.942 568.457 740.21 570.779C742.478 573.047 743.612 576.287 743.612 580.499V606.5H734.054V581.633C734.054 579.581 733.514 577.934 732.434 576.692C731.408 575.396 729.842 574.748 727.736 574.748C726.17 574.748 724.577 575.18 722.957 576.044C721.337 576.854 719.852 577.961 718.502 579.365V606.5Z" fill="#01011F"/>
</g>
<defs>
<filter id="filter0_d_87_473" x="296.948" y="144.5" width="306.104" height="326" filterUnits="userSpaceOnUse" color-interpolation-filters="sRGB">
<feFlood flood-opacity="0" result="BackgroundImageFix"/>
<feColorMatrix in="SourceAlpha" type="matrix" values="0 0 0 0 0 0 0 0 0 0 0 0 0 0 0 0 0 0 127 0" result="hardAlpha"/>
<feOffset dy="8"/>
<feGaussianBlur stdDeviation="6.5"/>
<feComposite in2="hardAlpha" operator="out"/>
<feColorMatrix type="matrix" values="0 0 0 0 0.39691 0 0 0 0 0.555785 0 0 0 0 0.670833 0 0 0 0.15 0"/>
<feBlend mode="normal" in2="BackgroundImageFix" result="effect1_dropShadow_87_473"/>
<feBlend mode="normal" in="SourceGraphic" in2="effect1_dropShadow_87_473" result="shape"/>
</filter>
<filter id="filter1_dii_87_473" x="415.738" y="302.032" width="190.314" height="110.768" filterUnits="userSpaceOnUse" color-interpolation-filters="sRGB">
<feFlood flood-opacity="0" result="BackgroundImageFix"/>
<feColorMatrix in="SourceAlpha" type="matrix" values="0 0 0 0 0 0 0 0 0 0 0 0 0 0 0 0 0 0 127 0" result="hardAlpha"/>
<feOffset dx="-6" dy="6"/>
<feGaussianBlur stdDeviation="6"/>
<feComposite in2="hardAlpha" operator="out"/>
<feColorMatrix type="matrix" values="0 0 0 0 0 0 0 0 0 0 0 0 0 0 0 0 0 0 0.25 0"/>
<feBlend mode="normal" in2="BackgroundImageFix" result="effect1_dropShadow_87_473"/>
<feBlend mode="normal" in="SourceGraphic" in2="effect1_dropShadow_87_473" result="shape"/>
<feColorMatrix in="SourceAlpha" type="matrix" values="0 0 0 0 0 0 0 0 0 0 0 0 0 0 0 0 0 0 127 0" result="hardAlpha"/>
<feOffset dx="16" dy="-16"/>
<feGaussianBlur stdDeviation="8"/>
<feComposite in2="hardAlpha" operator="arithmetic" k2="-1" k3="1"/>
<feColorMatrix type="matrix" values="0 0 0 0 0 0 0 0 0 0 0 0 0 0 0 0 0 0 0.25 0"/>
<feBlend mode="normal" in2="shape" result="effect2_innerShadow_87_473"/>
<feColorMatrix in="SourceAlpha" type="matrix" values="0 0 0 0 0 0 0 0 0 0 0 0 0 0 0 0 0 0 127 0" result="hardAlpha"/>
<feOffset dx="-16" dy="16"/>
<feGaussianBlur stdDeviation="8"/>
<feComposite in2="hardAlpha" operator="arithmetic" k2="-1" k3="1"/>
<feColorMatrix type="matrix" values="0 0 0 0 0.702135 0 0 0 0 0.803073 0 0 0 0 0.920833 0 0 0 0.25 0"/>
<feBlend mode="normal" in2="effect2_innerShadow_87_473" result="effect3_innerShadow_87_473"/>
</filter>
<filter id="filter2_dii_87_473" x="352.349" y="310.634" width="157.374" height="156.866" filterUnits="userSpaceOnUse" color-interpolation-filters="sRGB">
<feFlood flood-opacity="0" result="BackgroundImageFix"/>
<feColorMatrix in="SourceAlpha" type="matrix" values="0 0 0 0 0 0 0 0 0 0 0 0 0 0 0 0 0 0 127 0" result="hardAlpha"/>
<feOffset dx="-6" dy="6"/>
<feGaussianBlur stdDeviation="6"/>
<feComposite in2="hardAlpha" operator="out"/>
<feColorMatrix type="matrix" values="0 0 0 0 0 0 0 0 0 0 0 0 0 0 0 0 0 0 0.25 0"/>
<feBlend mode="normal" in2="BackgroundImageFix" result="effect1_dropShadow_87_473"/>
<feBlend mode="normal" in="SourceGraphic" in2="effect1_dropShadow_87_473" result="shape"/>
<feColorMatrix in="SourceAlpha" type="matrix" values="0 0 0 0 0 0 0 0 0 0 0 0 0 0 0 0 0 0 127 0" result="hardAlpha"/>
<feOffset dx="16" dy="-16"/>
<feGaussianBlur stdDeviation="8"/>
<feComposite in2="hardAlpha" operator="arithmetic" k2="-1" k3="1"/>
<feColorMatrix type="matrix" values="0 0 0 0 0 0 0 0 0 0 0 0 0 0 0 0 0 0 0.25 0"/>
<feBlend mode="normal" in2="shape" result="effect2_innerShadow_87_473"/>
<feColorMatrix in="SourceAlpha" type="matrix" values="0 0 0 0 0 0 0 0 0 0 0 0 0 0 0 0 0 0 127 0" result="hardAlpha"/>
<feOffset dx="-16" dy="16"/>
<feGaussianBlur stdDeviation="8"/>
<feComposite in2="hardAlpha" operator="arithmetic" k2="-1" k3="1"/>
<feColorMatrix type="matrix" values="0 0 0 0 0.866667 0 0 0 0 0.928205 0 0 0 0 1 0 0 0 0.25 0"/>
<feBlend mode="normal" in2="effect2_innerShadow_87_473" result="effect3_innerShadow_87_473"/>
</filter>
<filter id="filter3_dii_87_473" x="293.087" y="229.772" width="109.521" height="182.511" filterUnits="userSpaceOnUse" color-interpolation-filters="sRGB">
<feFlood flood-opacity="0" result="BackgroundImageFix"/>
<feColorMatrix in="SourceAlpha" type="matrix" values="0 0 0 0 0 0 0 0 0 0 0 0 0 0 0 0 0 0 127 0" result="hardAlpha"/>
<feOffset dx="-6" dy="6"/>
<feGaussianBlur stdDeviation="6"/>
<feComposite in2="hardAlpha" operator="out"/>
<feColorMatrix type="matrix" values="0 0 0 0 0 0 0 0 0 0 0 0 0 0 0 0 0 0 0.25 0"/>
<feBlend mode="normal" in2="BackgroundImageFix" result="effect1_dropShadow_87_473"/>
<feBlend mode="normal" in="SourceGraphic" in2="effect1_dropShadow_87_473" result="shape"/>
<feColorMatrix in="SourceAlpha" type="matrix" values="0 0 0 0 0 0 0 0 0 0 0 0 0 0 0 0 0 0 127 0" result="hardAlpha"/>
<feOffset dx="16" dy="-16"/>
<feGaussianBlur stdDeviation="8"/>
<feComposite in2="hardAlpha" operator="arithmetic" k2="-1" k3="1"/>
<feColorMatrix type="matrix" values="0 0 0 0 0 0 0 0 0 0 0 0 0 0 0 0 0 0 0.25 0"/>
<feBlend mode="normal" in2="shape" result="effect2_innerShadow_87_473"/>
<feColorMatrix in="SourceAlpha" type="matrix" values="0 0 0 0 0 0 0 0 0 0 0 0 0 0 0 0 0 0 127 0" result="hardAlpha"/>
<feOffset dx="-16" dy="16"/>
<feGaussianBlur stdDeviation="8"/>
<feComposite in2="hardAlpha" operator="arithmetic" k2="-1" k3="1"/>
<feColorMatrix type="matrix" values="0 0 0 0 0.629931 0 0 0 0 0.710347 0 0 0 0 0.804167 0 0 0 0.25 0"/>
<feBlend mode="normal" in2="effect2_innerShadow_87_473" result="effect3_innerShadow_87_473"/>
</filter>
<filter id="filter4_dii_87_473" x="387.605" y="133.5" width="157.104" height="158.84" filterUnits="userSpaceOnUse" color-interpolation-filters="sRGB">
<feFlood flood-opacity="0" result="BackgroundImageFix"/>
<feColorMatrix in="SourceAlpha" type="matrix" values="0 0 0 0 0 0 0 0 0 0 0 0 0 0 0 0 0 0 127 0" result="hardAlpha"/>
<feOffset dx="-6" dy="6"/>
<feGaussianBlur stdDeviation="6"/>
<feComposite in2="hardAlpha" operator="out"/>
<feColorMatrix type="matrix" values="0 0 0 0 0 0 0 0 0 0 0 0 0 0 0 0 0 0 0.25 0"/>
<feBlend mode="normal" in2="BackgroundImageFix" result="effect1_dropShadow_87_473"/>
<feBlend mode="normal" in="SourceGraphic" in2="effect1_dropShadow_87_473" result="shape"/>
<feColorMatrix in="SourceAlpha" type="matrix" values="0 0 0 0 0 0 0 0 0 0 0 0 0 0 0 0 0 0 127 0" result="hardAlpha"/>
<feOffset dx="16" dy="-16"/>
<feGaussianBlur stdDeviation="8"/>
<feComposite in2="hardAlpha" operator="arithmetic" k2="-1" k3="1"/>
<feColorMatrix type="matrix" values="0 0 0 0 0 0 0 0 0 0 0 0 0 0 0 0 0 0 0.25 0"/>
<feBlend mode="normal" in2="shape" result="effect2_innerShadow_87_473"/>
<feColorMatrix in="SourceAlpha" type="matrix" values="0 0 0 0 0 0 0 0 0 0 0 0 0 0 0 0 0 0 127 0" result="hardAlpha"/>
<feOffset dx="-16" dy="16"/>
<feGaussianBlur stdDeviation="8"/>
<feComposite in2="hardAlpha" operator="arithmetic" k2="-1" k3="1"/>
<feColorMatrix type="matrix" values="0 0 0 0 0.702135 0 0 0 0 0.803073 0 0 0 0 0.920833 0 0 0 0.25 0"/>
<feBlend mode="normal" in2="effect2_innerShadow_87_473" result="effect3_innerShadow_87_473"/>
</filter>
<filter id="filter5_dii_87_473" x="494.479" y="189.101" width="109.599" height="181.884" filterUnits="userSpaceOnUse" color-interpolation-filters="sRGB">
<feFlood flood-opacity="0" result="BackgroundImageFix"/>
<feColorMatrix in="SourceAlpha" type="matrix" values="0 0 0 0 0 0 0 0 0 0 0 0 0 0 0 0 0 0 127 0" result="hardAlpha"/>
<feOffset dx="-6" dy="6"/>
<feGaussianBlur stdDeviation="6"/>
<feComposite in2="hardAlpha" operator="out"/>
<feColorMatrix type="matrix" values="0 0 0 0 0 0 0 0 0 0 0 0 0 0 0 0 0 0 0.25 0"/>
<feBlend mode="normal" in2="BackgroundImageFix" result="effect1_dropShadow_87_473"/>
<feBlend mode="normal" in="SourceGraphic" in2="effect1_dropShadow_87_473" result="shape"/>
<feColorMatrix in="SourceAlpha" type="matrix" values="0 0 0 0 0 0 0 0 0 0 0 0 0 0 0 0 0 0 127 0" result="hardAlpha"/>
<feOffset dx="16" dy="-16"/>
<feGaussianBlur stdDeviation="8"/>
<feComposite in2="hardAlpha" operator="arithmetic" k2="-1" k3="1"/>
<feColorMatrix type="matrix" values="0 0 0 0 0 0 0 0 0 0 0 0 0 0 0 0 0 0 0.25 0"/>
<feBlend mode="normal" in2="shape" result="effect2_innerShadow_87_473"/>
<feColorMatrix in="SourceAlpha" type="matrix" values="0 0 0 0 0 0 0 0 0 0 0 0 0 0 0 0 0 0 127 0" result="hardAlpha"/>
<feOffset dx="-16" dy="16"/>
<feGaussianBlur stdDeviation="8"/>
<feComposite in2="hardAlpha" operator="arithmetic" k2="-1" k3="1"/>
<feColorMatrix type="matrix" values="0 0 0 0 0.866667 0 0 0 0 0.928205 0 0 0 0 1 0 0 0 0.25 0"/>
<feBlend mode="normal" in2="effect2_innerShadow_87_473" result="effect3_innerShadow_87_473"/>
</filter>
<filter id="filter6_dii_87_473" x="291.948" y="188.527" width="188.879" height="110.801" filterUnits="userSpaceOnUse" color-interpolation-filters="sRGB">
<feFlood flood-opacity="0" result="BackgroundImageFix"/>
<feColorMatrix in="SourceAlpha" type="matrix" values="0 0 0 0 0 0 0 0 0 0 0 0 0 0 0 0 0 0 127 0" result="hardAlpha"/>
<feOffset dx="-6" dy="6"/>
<feGaussianBlur stdDeviation="6"/>
<feComposite in2="hardAlpha" operator="out"/>
<feColorMatrix type="matrix" values="0 0 0 0 0 0 0 0 0 0 0 0 0 0 0 0 0 0 0.25 0"/>
<feBlend mode="normal" in2="BackgroundImageFix" result="effect1_dropShadow_87_473"/>
<feBlend mode="normal" in="SourceGraphic" in2="effect1_dropShadow_87_473" result="shape"/>
<feColorMatrix in="SourceAlpha" type="matrix" values="0 0 0 0 0 0 0 0 0 0 0 0 0 0 0 0 0 0 127 0" result="hardAlpha"/>
<feOffset dx="16" dy="-16"/>
<feGaussianBlur stdDeviation="8"/>
<feComposite in2="hardAlpha" operator="arithmetic" k2="-1" k3="1"/>
<feColorMatrix type="matrix" values="0 0 0 0 0 0 0 0 0 0 0 0 0 0 0 0 0 0 0.25 0"/>
<feBlend mode="normal" in2="shape" result="effect2_innerShadow_87_473"/>
<feColorMatrix in="SourceAlpha" type="matrix" values="0 0 0 0 0 0 0 0 0 0 0 0 0 0 0 0 0 0 127 0" result="hardAlpha"/>
<feOffset dx="-16" dy="16"/>
<feGaussianBlur stdDeviation="8"/>
<feComposite in2="hardAlpha" operator="arithmetic" k2="-1" k3="1"/>
<feColorMatrix type="matrix" values="0 0 0 0 0.866667 0 0 0 0 0.928205 0 0 0 0 1 0 0 0 0.25 0"/>
<feBlend mode="normal" in2="effect2_innerShadow_87_473" result="effect3_innerShadow_87_473"/>
</filter>
<filter id="filter7_ii_87_473" x="140.913" y="532.99" width="618.699" height="90.3201" filterUnits="userSpaceOnUse" color-interpolation-filters="sRGB">
<feFlood flood-opacity="0" result="BackgroundImageFix"/>
<feBlend mode="normal" in="SourceGraphic" in2="BackgroundImageFix" result="shape"/>
<feColorMatrix in="SourceAlpha" type="matrix" values="0 0 0 0 0 0 0 0 0 0 0 0 0 0 0 0 0 0 127 0" result="hardAlpha"/>
<feOffset dx="16" dy="-16"/>
<feGaussianBlur stdDeviation="8"/>
<feComposite in2="hardAlpha" operator="arithmetic" k2="-1" k3="1"/>
<feColorMatrix type="matrix" values="0 0 0 0 0 0 0 0 0 0 0 0 0 0 0 0 0 0 0.25 0"/>
<feBlend mode="normal" in2="shape" result="effect1_innerShadow_87_473"/>
<feColorMatrix in="SourceAlpha" type="matrix" values="0 0 0 0 0 0 0 0 0 0 0 0 0 0 0 0 0 0 127 0" result="hardAlpha"/>
<feOffset dx="-16" dy="16"/>
<feGaussianBlur stdDeviation="8"/>
<feComposite in2="hardAlpha" operator="arithmetic" k2="-1" k3="1"/>
<feColorMatrix type="matrix" values="0 0 0 0 0.292188 0 0 0 0 0.330409 0 0 0 0 0.375 0 0 0 0.25 0"/>
<feBlend mode="normal" in2="effect1_innerShadow_87_473" result="effect2_innerShadow_87_473"/>
</filter>
</defs>
</svg>
