<svg width="1008" height="325" viewBox="0 0 1008 325" fill="none" xmlns="http://www.w3.org/2000/svg">
<rect width="1008" height="325" fill="white"/>
<g filter="url(#filter0_dii_87_374)">
<path d="M150.596 193.8C166.25 190.331 176.326 182.66 188.898 164.648C189.197 165.059 189.499 165.403 189.725 165.793C192.575 170.704 195.393 175.634 198.276 180.527C198.846 181.494 198.871 182.256 198.291 183.235C195.903 187.271 193.558 191.333 191.259 195.42C189.318 198.871 186.451 200.518 182.471 200.473C171.91 200.354 161.343 200.514 150.789 200.191C142.725 199.944 134.85 198.357 127.399 195.072C126.846 194.828 126.306 194.554 125.768 194.055C134.02 195.108 142.251 195.612 150.596 193.8Z" fill="#090912"/>
</g>
<g filter="url(#filter1_dii_87_374)">
<path d="M134.668 205.806C140.887 207.649 147.093 208.55 153.762 208.484C152.975 209.914 152.306 211.176 151.595 212.414C149.197 216.589 146.818 220.776 144.337 224.901C144.013 225.438 143.138 225.94 142.511 225.95C137.571 226.032 132.629 225.989 127.688 225.987C124.336 225.985 121.588 224.674 119.934 221.764C114.05 211.416 108.134 201.081 102.526 190.583C99.641 185.184 97.9142 179.281 96.9247 173.204C96.6894 171.759 96.4334 170.317 96.1869 168.874C96.4221 168.804 96.6573 168.733 96.8926 168.662C97.1403 169.215 97.4195 169.755 97.6312 170.321C101.707 181.213 108.022 190.459 117.497 197.389C122.682 201.181 128.4 203.887 134.668 205.806Z" fill="#0059B7"/>
</g>
<g filter="url(#filter2_dii_87_374)">
<path d="M80.8283 200.141C78.5469 200.561 77.4632 199.5 76.5135 197.713C74.4573 193.843 72.178 190.093 69.9869 186.295C68.4324 183.601 67.9162 180.651 69.4724 177.969C76.2534 166.282 82.1209 154.012 90.5124 143.337C93.6544 139.34 97.591 135.964 101.215 132.354C101.864 131.707 102.753 131.302 103.775 130.927C86.2284 152.652 84.9497 175.629 98.0055 200.141C92.2855 200.141 86.6447 200.141 80.8283 200.141Z" fill="#090912"/>
</g>
<g filter="url(#filter3_dii_87_374)">
<path d="M134.915 86.0849C135.532 86.0849 135.968 86.1221 136.396 86.0793C141.837 85.5354 145.464 87.7953 148.055 92.6711C152.829 101.658 158.143 110.357 162.936 119.334C166.74 126.46 169.195 134.1 169.998 142.201C170.041 142.63 170.074 143.061 170.088 143.493C170.095 143.722 170.051 143.952 169.886 144.259C165.657 132.066 158.95 121.673 148.263 114.199C137.658 106.783 125.719 103.628 112.64 103.58C115.984 97.7869 119.164 92.2339 122.421 86.7265C122.649 86.3416 123.447 86.1269 123.984 86.1187C127.565 86.0641 131.147 86.0871 134.915 86.0849Z" fill="#090912"/>
</g>
<g filter="url(#filter4_dii_87_374)">
<path d="M184.092 156.779C177.176 168.803 166.45 180.792 162.514 180.959C180.295 159.455 181.525 136.471 168.507 111.978C169.314 111.978 170.02 111.978 170.725 111.978C176.097 111.976 181.47 112.004 186.841 111.947C188.014 111.935 188.732 112.226 189.336 113.321C191.572 117.372 193.869 121.393 196.255 125.357C198.435 128.978 198.219 132.421 196.109 135.997C192.066 142.85 188.14 149.771 184.092 156.779Z" fill="#0059B7"/>
</g>
<g filter="url(#filter5_dii_87_374)">
<path d="M69.3742 133.46C67.4226 131.224 67.704 129.276 69.2513 126.951C71.6067 123.413 73.5332 119.592 75.7116 115.932C77.312 113.244 79.77 111.677 82.8775 111.679C94.2426 111.689 105.612 111.681 116.971 111.999C123.405 112.179 129.728 113.475 135.805 115.704C137.321 116.26 138.755 117.038 140.277 118.026C112.566 113.433 92.144 124.12 77.4655 147.52C74.7779 142.85 72.1095 138.214 69.3742 133.46Z" fill="#0059B7"/>
</g>
<path d="M267.235 129.1H277.235L294.595 155.66C295.768 157.473 296.835 159.26 297.795 161.02C298.808 162.727 299.528 164.06 299.955 165.02H300.115C299.795 161.553 299.635 158.113 299.635 154.7C299.635 151.233 299.635 147.74 299.635 144.22V129.1H309.795V179.5H299.795L283.635 155.02C282.942 153.953 282.248 152.86 281.555 151.74C280.915 150.567 280.302 149.447 279.715 148.38C279.128 147.313 278.595 146.353 278.115 145.5C277.688 144.593 277.368 143.847 277.155 143.26H276.995C277.262 146.94 277.395 150.487 277.395 153.9C277.448 157.26 277.475 160.7 277.475 164.22V179.5H267.235V129.1ZM327.709 164.14C327.709 166.913 328.642 168.993 330.509 170.38C332.375 171.767 334.829 172.46 337.869 172.46C340.109 172.46 342.029 172.06 343.629 171.26C345.282 170.46 346.509 169.58 347.309 168.62L334.029 154.94C332.322 155.74 330.829 156.887 329.549 158.38C328.322 159.82 327.709 161.74 327.709 164.14ZM317.549 164.54C317.549 161.287 318.455 158.407 320.269 155.9C322.082 153.34 325.069 151.1 329.229 149.18C328.002 147.9 326.882 146.327 325.869 144.46C324.909 142.593 324.429 140.62 324.429 138.54C324.429 134.647 325.762 131.58 328.429 129.34C331.149 127.047 334.829 125.9 339.469 125.9C341.495 125.9 343.389 126.22 345.149 126.86C346.909 127.447 348.429 128.273 349.709 129.34C350.989 130.407 352.002 131.713 352.749 133.26C353.495 134.753 353.869 136.38 353.869 138.14C353.869 140.807 353.095 143.073 351.549 144.94C350.002 146.807 348.162 148.273 346.029 149.34L340.989 144.14C342.002 143.553 342.829 142.753 343.469 141.74C344.162 140.727 344.509 139.527 344.509 138.14C344.509 136.7 344.002 135.5 342.989 134.54C341.975 133.527 340.749 133.02 339.309 133.02C337.549 133.02 336.242 133.5 335.389 134.46C334.535 135.42 334.109 136.647 334.109 138.14C334.109 139.9 334.615 141.58 335.629 143.18C336.642 144.727 338.162 146.567 340.189 148.7L352.909 161.74C353.549 160.513 354.242 159.073 354.989 157.42C355.735 155.767 356.349 154.14 356.829 152.54L364.749 155.74C363.949 157.98 362.989 160.22 361.869 162.46C360.749 164.647 359.735 166.407 358.829 167.74L370.269 179.5H357.949L352.829 174.3C351.335 175.847 349.229 177.233 346.509 178.46C343.842 179.687 340.535 180.3 336.589 180.3C330.615 180.3 325.949 178.887 322.589 176.06C319.229 173.233 317.549 169.393 317.549 164.54ZM375.36 129.1H393.04C395.973 129.1 398.613 129.447 400.96 130.14C403.36 130.833 405.387 131.847 407.04 133.18C408.747 134.513 410.053 136.14 410.96 138.06C411.867 139.927 412.32 142.087 412.32 144.54C412.32 147.42 411.787 149.9 410.72 151.98C409.653 154.06 408.187 155.793 406.32 157.18C404.507 158.513 402.373 159.527 399.92 160.22C397.467 160.86 394.853 161.18 392.08 161.18H386.32V179.5H375.36V129.1ZM386.32 152.78H390.8C392.187 152.78 393.493 152.673 394.72 152.46C396 152.193 397.093 151.767 398 151.18C398.96 150.54 399.707 149.74 400.24 148.78C400.773 147.767 401.04 146.513 401.04 145.02C401.04 142.407 400.16 140.487 398.4 139.26C396.64 138.033 394.4 137.42 391.68 137.42H386.32V152.78ZM455.905 160.066H468.545L466.254 153.43C465.517 151.376 464.832 149.322 464.2 147.268C463.568 145.161 462.962 143.055 462.383 140.948H462.225C461.646 142.949 461.014 145.003 460.329 147.11C459.644 149.164 458.933 151.271 458.196 153.43L455.905 160.066ZM456.853 129.73H468.071L486.478 179.5H475.023L471.152 168.045H453.456L449.585 179.5H438.288L456.853 129.73ZM492.625 129.73H503.448V159.513C503.448 163.621 504.265 166.755 505.897 168.914C507.583 171.021 510.163 172.074 513.639 172.074C517.063 172.074 519.538 170.994 521.065 168.835C522.593 166.676 523.356 163.884 523.356 160.461V129.73H534.179V159.671C534.179 166.623 532.441 171.811 528.965 175.234C525.542 178.657 520.433 180.369 513.639 180.369C507.109 180.369 501.974 178.657 498.234 175.234C494.495 171.811 492.625 166.491 492.625 159.276V129.73ZM578.983 129.73V138.262H564.921V179.5H554.098V138.262H540.352V129.73H578.983ZM606.102 128.861C609.631 128.861 612.896 129.44 615.898 130.599C618.9 131.758 621.481 133.443 623.64 135.655C625.799 137.814 627.485 140.5 628.696 143.713C629.96 146.926 630.592 150.586 630.592 154.694C630.592 158.697 629.96 162.278 628.696 165.438C627.432 168.598 625.694 171.284 623.482 173.496C621.27 175.708 618.637 177.42 615.582 178.631C612.58 179.79 609.315 180.369 605.786 180.369C602.257 180.369 598.992 179.816 595.99 178.71C592.988 177.551 590.407 175.892 588.248 173.733C586.089 171.521 584.377 168.835 583.113 165.675C581.902 162.462 581.296 158.802 581.296 154.694C581.296 150.691 581.928 147.11 583.192 143.95C584.456 140.737 586.194 138.025 588.406 135.813C590.618 133.548 593.225 131.837 596.227 130.678C599.282 129.467 602.573 128.861 606.102 128.861ZM592.751 154.694C592.751 157.643 593.093 160.224 593.778 162.436C594.515 164.595 595.49 166.412 596.701 167.887C597.912 169.309 599.308 170.389 600.888 171.126C602.521 171.811 604.259 172.153 606.102 172.153C607.893 172.153 609.578 171.811 611.158 171.126C612.791 170.389 614.186 169.309 615.345 167.887C616.504 166.412 617.425 164.595 618.11 162.436C618.795 160.224 619.137 157.643 619.137 154.694C619.137 151.639 618.768 149.006 618.031 146.794C617.346 144.582 616.398 142.765 615.187 141.343C613.976 139.868 612.554 138.789 610.921 138.104C609.341 137.419 607.629 137.077 605.786 137.077C603.943 137.077 602.231 137.446 600.651 138.183C599.071 138.92 597.702 140.026 596.543 141.501C595.384 142.923 594.463 144.74 593.778 146.952C593.093 149.164 592.751 151.745 592.751 154.694ZM642.371 129.73H656.038L663.148 152.403C663.464 153.404 663.78 154.483 664.096 155.642C664.465 156.801 664.807 157.959 665.123 159.118C665.439 160.277 665.729 161.409 665.992 162.515C666.255 163.621 666.466 164.648 666.624 165.596H666.94C667.098 164.753 667.309 163.779 667.572 162.673C667.835 161.514 668.125 160.329 668.441 159.118C668.757 157.907 669.073 156.722 669.389 155.563C669.705 154.404 669.995 153.351 670.258 152.403L677.131 129.73H690.798L694.511 179.5H684.32C684.004 174.023 683.688 168.545 683.372 163.068C683.056 157.591 682.845 152.061 682.74 146.478L682.661 140H682.424C681.739 142.897 680.976 145.925 680.133 149.085C679.343 152.245 678.579 155.01 677.842 157.38L670.811 179.5H662.437L655.248 157.301C654.353 154.457 653.51 151.455 652.72 148.295C651.93 145.135 651.298 142.37 650.824 140H650.587C650.587 141.896 650.561 143.897 650.508 146.004C650.455 148.058 650.376 150.112 650.271 152.166C650.218 154.22 650.139 156.248 650.034 158.249C649.981 160.198 649.902 161.988 649.797 163.621L648.849 179.5H638.816L642.371 129.73ZM718.133 160.066H730.773L728.482 153.43C727.744 151.376 727.06 149.322 726.428 147.268C725.796 145.161 725.19 143.055 724.611 140.948H724.453C723.873 142.949 723.241 145.003 722.557 147.11C721.872 149.164 721.161 151.271 720.424 153.43L718.133 160.066ZM719.081 129.73H730.299L748.706 179.5H737.251L733.38 168.045H715.684L711.813 179.5H700.516L719.081 129.73ZM784.506 129.73V138.262H770.444V179.5H759.621V138.262H745.875V129.73H784.506ZM801.476 129.73V179.5H790.653V129.73H801.476ZM835.001 128.861C838.53 128.861 841.795 129.44 844.797 130.599C847.799 131.758 850.38 133.443 852.539 135.655C854.699 137.814 856.384 140.5 857.595 143.713C858.859 146.926 859.491 150.586 859.491 154.694C859.491 158.697 858.859 162.278 857.595 165.438C856.331 168.598 854.593 171.284 852.381 173.496C850.169 175.708 847.536 177.42 844.481 178.631C841.479 179.79 838.214 180.369 834.685 180.369C831.157 180.369 827.891 179.816 824.889 178.71C821.887 177.551 819.307 175.892 817.147 173.733C814.988 171.521 813.276 168.835 812.012 165.675C810.801 162.462 810.195 158.802 810.195 154.694C810.195 150.691 810.827 147.11 812.091 143.95C813.355 140.737 815.093 138.025 817.305 135.813C819.517 133.548 822.124 131.837 825.126 130.678C828.181 129.467 831.473 128.861 835.001 128.861ZM821.65 154.694C821.65 157.643 821.993 160.224 822.677 162.436C823.415 164.595 824.389 166.412 825.6 167.887C826.812 169.309 828.207 170.389 829.787 171.126C831.42 171.811 833.158 172.153 835.001 172.153C836.792 172.153 838.477 171.811 840.057 171.126C841.69 170.389 843.086 169.309 844.244 167.887C845.403 166.412 846.325 164.595 847.009 162.436C847.694 160.224 848.036 157.643 848.036 154.694C848.036 151.639 847.668 149.006 846.93 146.794C846.246 144.582 845.298 142.765 844.086 141.343C842.875 139.868 841.453 138.789 839.82 138.104C838.24 137.419 836.529 137.077 834.685 137.077C832.842 137.077 831.13 137.446 829.55 138.183C827.97 138.92 826.601 140.026 825.442 141.501C824.284 142.923 823.362 144.74 822.677 146.952C821.993 149.164 821.65 151.745 821.65 154.694ZM868.11 129.73H877.985L895.128 155.958C896.287 157.749 897.34 159.513 898.288 161.251C899.289 162.936 900 164.253 900.421 165.201H900.579C900.263 161.778 900.105 158.381 900.105 155.01C900.105 151.587 900.105 148.137 900.105 144.661V129.73H910.138V179.5H900.263L884.305 155.326C883.621 154.273 882.936 153.193 882.251 152.087C881.619 150.928 881.014 149.822 880.434 148.769C879.855 147.716 879.328 146.768 878.854 145.925C878.433 145.03 878.117 144.292 877.906 143.713H877.748C878.012 147.347 878.143 150.849 878.143 154.22C878.196 157.538 878.222 160.935 878.222 164.411V179.5H868.11V129.73Z" fill="#01011F"/>
<defs>
<filter id="filter0_dii_87_374" x="107.768" y="148.648" width="106.947" height="69.8252" filterUnits="userSpaceOnUse" color-interpolation-filters="sRGB">
<feFlood flood-opacity="0" result="BackgroundImageFix"/>
<feColorMatrix in="SourceAlpha" type="matrix" values="0 0 0 0 0 0 0 0 0 0 0 0 0 0 0 0 0 0 127 0" result="hardAlpha"/>
<feOffset dx="-6" dy="6"/>
<feGaussianBlur stdDeviation="6"/>
<feComposite in2="hardAlpha" operator="out"/>
<feColorMatrix type="matrix" values="0 0 0 0 0 0 0 0 0 0 0 0 0 0 0 0 0 0 0.25 0"/>
<feBlend mode="normal" in2="BackgroundImageFix" result="effect1_dropShadow_87_374"/>
<feBlend mode="normal" in="SourceGraphic" in2="effect1_dropShadow_87_374" result="shape"/>
<feColorMatrix in="SourceAlpha" type="matrix" values="0 0 0 0 0 0 0 0 0 0 0 0 0 0 0 0 0 0 127 0" result="hardAlpha"/>
<feOffset dx="16" dy="-16"/>
<feGaussianBlur stdDeviation="8"/>
<feComposite in2="hardAlpha" operator="arithmetic" k2="-1" k3="1"/>
<feColorMatrix type="matrix" values="0 0 0 0 0 0 0 0 0 0 0 0 0 0 0 0 0 0 0.25 0"/>
<feBlend mode="normal" in2="shape" result="effect2_innerShadow_87_374"/>
<feColorMatrix in="SourceAlpha" type="matrix" values="0 0 0 0 0 0 0 0 0 0 0 0 0 0 0 0 0 0 127 0" result="hardAlpha"/>
<feOffset dx="-16" dy="16"/>
<feGaussianBlur stdDeviation="8"/>
<feComposite in2="hardAlpha" operator="arithmetic" k2="-1" k3="1"/>
<feColorMatrix type="matrix" values="0 0 0 0 0.702135 0 0 0 0 0.803073 0 0 0 0 0.920833 0 0 0 0.25 0"/>
<feBlend mode="normal" in2="effect2_innerShadow_87_374" result="effect3_innerShadow_87_374"/>
</filter>
<filter id="filter1_dii_87_374" x="78.1869" y="152.662" width="91.5747" height="91.3376" filterUnits="userSpaceOnUse" color-interpolation-filters="sRGB">
<feFlood flood-opacity="0" result="BackgroundImageFix"/>
<feColorMatrix in="SourceAlpha" type="matrix" values="0 0 0 0 0 0 0 0 0 0 0 0 0 0 0 0 0 0 127 0" result="hardAlpha"/>
<feOffset dx="-6" dy="6"/>
<feGaussianBlur stdDeviation="6"/>
<feComposite in2="hardAlpha" operator="out"/>
<feColorMatrix type="matrix" values="0 0 0 0 0 0 0 0 0 0 0 0 0 0 0 0 0 0 0.25 0"/>
<feBlend mode="normal" in2="BackgroundImageFix" result="effect1_dropShadow_87_374"/>
<feBlend mode="normal" in="SourceGraphic" in2="effect1_dropShadow_87_374" result="shape"/>
<feColorMatrix in="SourceAlpha" type="matrix" values="0 0 0 0 0 0 0 0 0 0 0 0 0 0 0 0 0 0 127 0" result="hardAlpha"/>
<feOffset dx="16" dy="-16"/>
<feGaussianBlur stdDeviation="8"/>
<feComposite in2="hardAlpha" operator="arithmetic" k2="-1" k3="1"/>
<feColorMatrix type="matrix" values="0 0 0 0 0 0 0 0 0 0 0 0 0 0 0 0 0 0 0.25 0"/>
<feBlend mode="normal" in2="shape" result="effect2_innerShadow_87_374"/>
<feColorMatrix in="SourceAlpha" type="matrix" values="0 0 0 0 0 0 0 0 0 0 0 0 0 0 0 0 0 0 127 0" result="hardAlpha"/>
<feOffset dx="-16" dy="16"/>
<feGaussianBlur stdDeviation="8"/>
<feComposite in2="hardAlpha" operator="arithmetic" k2="-1" k3="1"/>
<feColorMatrix type="matrix" values="0 0 0 0 0.866667 0 0 0 0 0.928205 0 0 0 0 1 0 0 0 0.25 0"/>
<feBlend mode="normal" in2="effect2_innerShadow_87_374" result="effect3_innerShadow_87_374"/>
</filter>
<filter id="filter2_dii_87_374" x="50.5317" y="114.927" width="69.2431" height="103.305" filterUnits="userSpaceOnUse" color-interpolation-filters="sRGB">
<feFlood flood-opacity="0" result="BackgroundImageFix"/>
<feColorMatrix in="SourceAlpha" type="matrix" values="0 0 0 0 0 0 0 0 0 0 0 0 0 0 0 0 0 0 127 0" result="hardAlpha"/>
<feOffset dx="-6" dy="6"/>
<feGaussianBlur stdDeviation="6"/>
<feComposite in2="hardAlpha" operator="out"/>
<feColorMatrix type="matrix" values="0 0 0 0 0 0 0 0 0 0 0 0 0 0 0 0 0 0 0.25 0"/>
<feBlend mode="normal" in2="BackgroundImageFix" result="effect1_dropShadow_87_374"/>
<feBlend mode="normal" in="SourceGraphic" in2="effect1_dropShadow_87_374" result="shape"/>
<feColorMatrix in="SourceAlpha" type="matrix" values="0 0 0 0 0 0 0 0 0 0 0 0 0 0 0 0 0 0 127 0" result="hardAlpha"/>
<feOffset dx="16" dy="-16"/>
<feGaussianBlur stdDeviation="8"/>
<feComposite in2="hardAlpha" operator="arithmetic" k2="-1" k3="1"/>
<feColorMatrix type="matrix" values="0 0 0 0 0 0 0 0 0 0 0 0 0 0 0 0 0 0 0.25 0"/>
<feBlend mode="normal" in2="shape" result="effect2_innerShadow_87_374"/>
<feColorMatrix in="SourceAlpha" type="matrix" values="0 0 0 0 0 0 0 0 0 0 0 0 0 0 0 0 0 0 127 0" result="hardAlpha"/>
<feOffset dx="-16" dy="16"/>
<feGaussianBlur stdDeviation="8"/>
<feComposite in2="hardAlpha" operator="arithmetic" k2="-1" k3="1"/>
<feColorMatrix type="matrix" values="0 0 0 0 0.629931 0 0 0 0 0.710347 0 0 0 0 0.804167 0 0 0 0.25 0"/>
<feBlend mode="normal" in2="effect2_innerShadow_87_374" result="effect3_innerShadow_87_374"/>
</filter>
<filter id="filter3_dii_87_374" x="94.6397" y="70" width="91.4487" height="92.2585" filterUnits="userSpaceOnUse" color-interpolation-filters="sRGB">
<feFlood flood-opacity="0" result="BackgroundImageFix"/>
<feColorMatrix in="SourceAlpha" type="matrix" values="0 0 0 0 0 0 0 0 0 0 0 0 0 0 0 0 0 0 127 0" result="hardAlpha"/>
<feOffset dx="-6" dy="6"/>
<feGaussianBlur stdDeviation="6"/>
<feComposite in2="hardAlpha" operator="out"/>
<feColorMatrix type="matrix" values="0 0 0 0 0 0 0 0 0 0 0 0 0 0 0 0 0 0 0.25 0"/>
<feBlend mode="normal" in2="BackgroundImageFix" result="effect1_dropShadow_87_374"/>
<feBlend mode="normal" in="SourceGraphic" in2="effect1_dropShadow_87_374" result="shape"/>
<feColorMatrix in="SourceAlpha" type="matrix" values="0 0 0 0 0 0 0 0 0 0 0 0 0 0 0 0 0 0 127 0" result="hardAlpha"/>
<feOffset dx="16" dy="-16"/>
<feGaussianBlur stdDeviation="8"/>
<feComposite in2="hardAlpha" operator="arithmetic" k2="-1" k3="1"/>
<feColorMatrix type="matrix" values="0 0 0 0 0 0 0 0 0 0 0 0 0 0 0 0 0 0 0.25 0"/>
<feBlend mode="normal" in2="shape" result="effect2_innerShadow_87_374"/>
<feColorMatrix in="SourceAlpha" type="matrix" values="0 0 0 0 0 0 0 0 0 0 0 0 0 0 0 0 0 0 127 0" result="hardAlpha"/>
<feOffset dx="-16" dy="16"/>
<feGaussianBlur stdDeviation="8"/>
<feComposite in2="hardAlpha" operator="arithmetic" k2="-1" k3="1"/>
<feColorMatrix type="matrix" values="0 0 0 0 0.702135 0 0 0 0 0.803073 0 0 0 0 0.920833 0 0 0 0.25 0"/>
<feBlend mode="normal" in2="effect2_innerShadow_87_374" result="effect3_innerShadow_87_374"/>
</filter>
<filter id="filter4_dii_87_374" x="144.514" y="95.947" width="69.2795" height="103.012" filterUnits="userSpaceOnUse" color-interpolation-filters="sRGB">
<feFlood flood-opacity="0" result="BackgroundImageFix"/>
<feColorMatrix in="SourceAlpha" type="matrix" values="0 0 0 0 0 0 0 0 0 0 0 0 0 0 0 0 0 0 127 0" result="hardAlpha"/>
<feOffset dx="-6" dy="6"/>
<feGaussianBlur stdDeviation="6"/>
<feComposite in2="hardAlpha" operator="out"/>
<feColorMatrix type="matrix" values="0 0 0 0 0 0 0 0 0 0 0 0 0 0 0 0 0 0 0.25 0"/>
<feBlend mode="normal" in2="BackgroundImageFix" result="effect1_dropShadow_87_374"/>
<feBlend mode="normal" in="SourceGraphic" in2="effect1_dropShadow_87_374" result="shape"/>
<feColorMatrix in="SourceAlpha" type="matrix" values="0 0 0 0 0 0 0 0 0 0 0 0 0 0 0 0 0 0 127 0" result="hardAlpha"/>
<feOffset dx="16" dy="-16"/>
<feGaussianBlur stdDeviation="8"/>
<feComposite in2="hardAlpha" operator="arithmetic" k2="-1" k3="1"/>
<feColorMatrix type="matrix" values="0 0 0 0 0 0 0 0 0 0 0 0 0 0 0 0 0 0 0.25 0"/>
<feBlend mode="normal" in2="shape" result="effect2_innerShadow_87_374"/>
<feColorMatrix in="SourceAlpha" type="matrix" values="0 0 0 0 0 0 0 0 0 0 0 0 0 0 0 0 0 0 127 0" result="hardAlpha"/>
<feOffset dx="-16" dy="16"/>
<feGaussianBlur stdDeviation="8"/>
<feComposite in2="hardAlpha" operator="arithmetic" k2="-1" k3="1"/>
<feColorMatrix type="matrix" values="0 0 0 0 0.866667 0 0 0 0 0.928205 0 0 0 0 1 0 0 0 0.25 0"/>
<feBlend mode="normal" in2="effect2_innerShadow_87_374" result="effect3_innerShadow_87_374"/>
</filter>
<filter id="filter5_dii_87_374" x="50" y="95.6794" width="106.277" height="69.8403" filterUnits="userSpaceOnUse" color-interpolation-filters="sRGB">
<feFlood flood-opacity="0" result="BackgroundImageFix"/>
<feColorMatrix in="SourceAlpha" type="matrix" values="0 0 0 0 0 0 0 0 0 0 0 0 0 0 0 0 0 0 127 0" result="hardAlpha"/>
<feOffset dx="-6" dy="6"/>
<feGaussianBlur stdDeviation="6"/>
<feComposite in2="hardAlpha" operator="out"/>
<feColorMatrix type="matrix" values="0 0 0 0 0 0 0 0 0 0 0 0 0 0 0 0 0 0 0.25 0"/>
<feBlend mode="normal" in2="BackgroundImageFix" result="effect1_dropShadow_87_374"/>
<feBlend mode="normal" in="SourceGraphic" in2="effect1_dropShadow_87_374" result="shape"/>
<feColorMatrix in="SourceAlpha" type="matrix" values="0 0 0 0 0 0 0 0 0 0 0 0 0 0 0 0 0 0 127 0" result="hardAlpha"/>
<feOffset dx="16" dy="-16"/>
<feGaussianBlur stdDeviation="8"/>
<feComposite in2="hardAlpha" operator="arithmetic" k2="-1" k3="1"/>
<feColorMatrix type="matrix" values="0 0 0 0 0 0 0 0 0 0 0 0 0 0 0 0 0 0 0.25 0"/>
<feBlend mode="normal" in2="shape" result="effect2_innerShadow_87_374"/>
<feColorMatrix in="SourceAlpha" type="matrix" values="0 0 0 0 0 0 0 0 0 0 0 0 0 0 0 0 0 0 127 0" result="hardAlpha"/>
<feOffset dx="-16" dy="16"/>
<feGaussianBlur stdDeviation="8"/>
<feComposite in2="hardAlpha" operator="arithmetic" k2="-1" k3="1"/>
<feColorMatrix type="matrix" values="0 0 0 0 0.866667 0 0 0 0 0.928205 0 0 0 0 1 0 0 0 0.25 0"/>
<feBlend mode="normal" in2="effect2_innerShadow_87_374" result="effect3_innerShadow_87_374"/>
</filter>
</defs>
</svg>
