<svg width="866" height="164" viewBox="0 0 866 164" fill="none" xmlns="http://www.w3.org/2000/svg">
<g filter="url(#filter0_dii_189_120)">
<path d="M100.596 113.8C116.25 110.331 126.326 102.66 138.898 84.6484C139.197 85.0586 139.499 85.4035 139.725 85.7925C142.575 90.7038 145.393 95.6343 148.276 100.527C148.846 101.494 148.871 102.256 148.291 103.235C145.903 107.271 143.558 111.333 141.259 115.42C139.318 118.871 136.451 120.518 132.471 120.473C121.91 120.354 111.343 120.514 100.789 120.191C92.7252 119.944 84.8495 118.357 77.399 115.072C76.8458 114.828 76.3056 114.554 75.7684 114.055C84.0201 115.108 92.2507 115.612 100.596 113.8Z" fill="#FAFAFA"/>
</g>
<g filter="url(#filter1_dii_189_120)">
<path d="M84.6684 125.806C90.8871 127.649 97.093 128.55 103.762 128.484C102.975 129.914 102.306 131.176 101.595 132.414C99.1974 136.589 96.8183 140.776 94.3367 144.901C94.0134 145.438 93.1384 145.94 92.5106 145.95C87.5708 146.032 82.629 145.989 77.6879 145.987C74.3359 145.985 71.5883 144.674 69.934 141.764C64.0499 131.416 58.1339 121.081 52.5257 110.583C49.641 105.184 47.9142 99.2808 46.9247 93.2036C46.6895 91.7587 46.4334 90.3172 46.1869 88.8742C46.4221 88.8036 46.6574 88.733 46.8926 88.6624C47.1404 89.2146 47.4196 89.755 47.6312 90.3207C51.7067 101.213 58.0222 110.459 67.497 117.389C72.6817 121.181 78.4 123.887 84.6684 125.806Z" fill="#F9F9F9"/>
</g>
<g filter="url(#filter2_dii_189_120)">
<path d="M30.8282 120.141C28.5469 120.561 27.4631 119.5 26.5135 117.713C24.4572 113.843 22.178 110.093 19.9868 106.295C18.4323 103.601 17.9162 100.651 19.4723 97.9688C26.2533 86.2824 32.1209 74.0123 40.5123 63.3374C43.6543 59.3404 47.591 55.9637 51.2145 52.3535C51.8635 51.707 52.7534 51.3022 53.7747 50.9272C36.2283 72.6522 34.9496 95.6287 48.0054 120.141C42.2854 120.141 36.6447 120.141 30.8282 120.141Z" fill="#F9F9F9"/>
</g>
<g filter="url(#filter3_dii_189_120)">
<path d="M84.9148 6.08494C85.5323 6.08494 85.9683 6.1221 86.3964 6.0793C91.8373 5.53542 95.4643 7.79531 98.0547 12.6711C102.829 21.6576 108.143 30.3571 112.936 39.3344C116.74 46.4601 119.195 54.1 119.998 62.2005C120.041 62.63 120.074 63.0613 120.088 63.4926C120.095 63.7216 120.051 63.9522 119.886 64.2585C115.657 52.0663 108.95 41.6725 98.2627 34.1991C87.6575 26.7827 75.7189 23.6276 62.6396 23.5804C65.9835 17.7869 69.1637 12.2339 72.4211 6.7265C72.6488 6.34156 73.4465 6.12694 73.9835 6.11874C77.5649 6.06408 81.1474 6.08713 84.9148 6.08494Z" fill="#F9F9F9"/>
</g>
<g filter="url(#filter4_dii_189_120)">
<path d="M134.092 76.7791C127.176 88.8029 116.45 100.792 112.514 100.959C130.294 79.4552 131.525 56.4707 118.507 31.9779C119.314 31.9779 120.02 31.9782 120.725 31.9779C126.097 31.9757 131.47 32.004 136.841 31.9474C138.014 31.935 138.732 32.2262 139.336 33.3211C141.572 37.3724 143.869 41.3927 146.255 45.3571C148.435 48.9776 148.219 52.4214 146.109 55.9969C142.066 62.8495 138.14 69.7713 134.092 76.7791Z" fill="#F9F9F9"/>
</g>
<g filter="url(#filter5_dii_189_120)">
<path d="M19.3742 53.46C17.4226 51.2241 17.704 49.2757 19.2513 46.9513C21.6067 43.413 23.5332 39.5919 25.7116 35.9324C27.312 33.2439 29.77 31.677 32.8775 31.6794C44.2426 31.6886 55.6121 31.6812 66.971 31.9988C73.405 32.1788 79.7275 33.4748 85.8049 35.7038C87.3209 36.2599 88.7554 37.0381 90.2768 38.0256C62.566 33.4334 42.144 44.1205 27.4655 67.5197C24.7779 62.85 22.1095 58.2139 19.3742 53.46Z" fill="#F9F9F9"/>
</g>
<path d="M217.235 49.1H227.235L244.595 75.66C245.768 77.4733 246.835 79.26 247.795 81.02C248.808 82.7267 249.528 84.06 249.955 85.02H250.115C249.795 81.5533 249.635 78.1133 249.635 74.7C249.635 71.2333 249.635 67.74 249.635 64.22V49.1H259.795V99.5H249.795L233.635 75.02C232.942 73.9533 232.248 72.86 231.555 71.74C230.915 70.5667 230.302 69.4467 229.715 68.38C229.128 67.3133 228.595 66.3533 228.115 65.5C227.688 64.5933 227.368 63.8467 227.155 63.26H226.995C227.262 66.94 227.395 70.4867 227.395 73.9C227.448 77.26 227.475 80.7 227.475 84.22V99.5H217.235V49.1ZM277.709 84.14C277.709 86.9133 278.642 88.9933 280.509 90.38C282.376 91.7667 284.829 92.46 287.869 92.46C290.109 92.46 292.029 92.06 293.629 91.26C295.282 90.46 296.509 89.58 297.309 88.62L284.029 74.94C282.322 75.74 280.829 76.8867 279.549 78.38C278.322 79.82 277.709 81.74 277.709 84.14ZM267.549 84.54C267.549 81.2867 268.456 78.4067 270.269 75.9C272.082 73.34 275.069 71.1 279.229 69.18C278.002 67.9 276.882 66.3267 275.869 64.46C274.909 62.5933 274.429 60.62 274.429 58.54C274.429 54.6467 275.762 51.58 278.429 49.34C281.149 47.0467 284.829 45.9 289.469 45.9C291.496 45.9 293.389 46.22 295.149 46.86C296.909 47.4467 298.429 48.2733 299.709 49.34C300.989 50.4067 302.002 51.7133 302.749 53.26C303.496 54.7533 303.869 56.38 303.869 58.14C303.869 60.8067 303.096 63.0733 301.549 64.94C300.002 66.8067 298.162 68.2733 296.029 69.34L290.989 64.14C292.002 63.5533 292.829 62.7533 293.469 61.74C294.162 60.7267 294.509 59.5267 294.509 58.14C294.509 56.7 294.002 55.5 292.989 54.54C291.976 53.5267 290.749 53.02 289.309 53.02C287.549 53.02 286.242 53.5 285.389 54.46C284.536 55.42 284.109 56.6467 284.109 58.14C284.109 59.9 284.616 61.58 285.629 63.18C286.642 64.7267 288.162 66.5667 290.189 68.7L302.909 81.74C303.549 80.5133 304.242 79.0733 304.989 77.42C305.736 75.7667 306.349 74.14 306.829 72.54L314.749 75.74C313.949 77.98 312.989 80.22 311.869 82.46C310.749 84.6467 309.736 86.4067 308.829 87.74L320.269 99.5H307.949L302.829 94.3C301.336 95.8467 299.229 97.2333 296.509 98.46C293.842 99.6867 290.536 100.3 286.589 100.3C280.616 100.3 275.949 98.8867 272.589 96.06C269.229 93.2333 267.549 89.3933 267.549 84.54ZM325.36 49.1H343.04C345.973 49.1 348.613 49.4467 350.96 50.14C353.36 50.8333 355.387 51.8467 357.04 53.18C358.747 54.5133 360.053 56.14 360.96 58.06C361.867 59.9267 362.32 62.0867 362.32 64.54C362.32 67.42 361.787 69.9 360.72 71.98C359.653 74.06 358.187 75.7933 356.32 77.18C354.507 78.5133 352.373 79.5267 349.92 80.22C347.467 80.86 344.853 81.18 342.08 81.18H336.32V99.5H325.36V49.1ZM336.32 72.78H340.8C342.187 72.78 343.493 72.6733 344.72 72.46C346 72.1933 347.093 71.7667 348 71.18C348.96 70.54 349.707 69.74 350.24 68.78C350.773 67.7667 351.04 66.5133 351.04 65.02C351.04 62.4067 350.16 60.4867 348.4 59.26C346.64 58.0333 344.4 57.42 341.68 57.42H336.32V72.78ZM405.905 80.066H418.545L416.254 73.43C415.517 71.376 414.832 69.322 414.2 67.268C413.568 65.1613 412.962 63.0547 412.383 60.948H412.225C411.646 62.9493 411.014 65.0033 410.329 67.11C409.644 69.164 408.933 71.2707 408.196 73.43L405.905 80.066ZM406.853 49.73H418.071L436.478 99.5H425.023L421.152 88.045H403.456L399.585 99.5H388.288L406.853 49.73ZM442.625 49.73H453.448V79.513C453.448 83.621 454.265 86.7547 455.897 88.914C457.583 91.0207 460.163 92.074 463.639 92.074C467.063 92.074 469.538 90.9943 471.065 88.835C472.593 86.6757 473.356 83.8843 473.356 80.461V49.73H484.179V79.671C484.179 86.623 482.441 91.8107 478.965 95.234C475.542 98.6573 470.433 100.369 463.639 100.369C457.109 100.369 451.974 98.6573 448.234 95.234C444.495 91.8107 442.625 86.4913 442.625 79.276V49.73ZM528.983 49.73V58.262H514.921V99.5H504.098V58.262H490.352V49.73H528.983ZM556.102 48.861C559.631 48.861 562.896 49.4403 565.898 50.599C568.9 51.7577 571.481 53.443 573.64 55.655C575.799 57.8143 577.485 60.5003 578.696 63.713C579.96 66.9257 580.592 70.586 580.592 74.694C580.592 78.6967 579.96 82.278 578.696 85.438C577.432 88.598 575.694 91.284 573.482 93.496C571.27 95.708 568.637 97.4197 565.582 98.631C562.58 99.7897 559.315 100.369 555.786 100.369C552.257 100.369 548.992 99.816 545.99 98.71C542.988 97.5513 540.407 95.8923 538.248 93.733C536.089 91.521 534.377 88.835 533.113 85.675C531.902 82.4623 531.296 78.802 531.296 74.694C531.296 70.6913 531.928 67.11 533.192 63.95C534.456 60.7373 536.194 58.025 538.406 55.813C540.618 53.5483 543.225 51.8367 546.227 50.678C549.282 49.4667 552.573 48.861 556.102 48.861ZM542.751 74.694C542.751 77.6433 543.093 80.224 543.778 82.436C544.515 84.5953 545.49 86.4123 546.701 87.887C547.912 89.309 549.308 90.3887 550.888 91.126C552.521 91.8107 554.259 92.153 556.102 92.153C557.893 92.153 559.578 91.8107 561.158 91.126C562.791 90.3887 564.186 89.309 565.345 87.887C566.504 86.4123 567.425 84.5953 568.11 82.436C568.795 80.224 569.137 77.6433 569.137 74.694C569.137 71.6393 568.768 69.006 568.031 66.794C567.346 64.582 566.398 62.765 565.187 61.343C563.976 59.8683 562.554 58.7887 560.921 58.104C559.341 57.4193 557.629 57.077 555.786 57.077C553.943 57.077 552.231 57.4457 550.651 58.183C549.071 58.9203 547.702 60.0263 546.543 61.501C545.384 62.923 544.463 64.74 543.778 66.952C543.093 69.164 542.751 71.7447 542.751 74.694ZM592.371 49.73H606.038L613.148 72.403C613.464 73.4037 613.78 74.4833 614.096 75.642C614.465 76.8007 614.807 77.9593 615.123 79.118C615.439 80.2767 615.729 81.409 615.992 82.515C616.255 83.621 616.466 84.648 616.624 85.596H616.94C617.098 84.7533 617.309 83.779 617.572 82.673C617.835 81.5143 618.125 80.3293 618.441 79.118C618.757 77.9067 619.073 76.7217 619.389 75.563C619.705 74.4043 619.995 73.351 620.258 72.403L627.131 49.73H640.798L644.511 99.5H634.32C634.004 94.0227 633.688 88.5453 633.372 83.068C633.056 77.5907 632.845 72.0607 632.74 66.478L632.661 60H632.424C631.739 62.8967 630.976 65.925 630.133 69.085C629.343 72.245 628.579 75.01 627.842 77.38L620.811 99.5H612.437L605.248 77.301C604.353 74.457 603.51 71.455 602.72 68.295C601.93 65.135 601.298 62.37 600.824 60H600.587C600.587 61.896 600.561 63.8973 600.508 66.004C600.455 68.058 600.376 70.112 600.271 72.166C600.218 74.22 600.139 76.2477 600.034 78.249C599.981 80.1977 599.902 81.9883 599.797 83.621L598.849 99.5H588.816L592.371 49.73ZM668.133 80.066H680.773L678.482 73.43C677.744 71.376 677.06 69.322 676.428 67.268C675.796 65.1613 675.19 63.0547 674.611 60.948H674.453C673.873 62.9493 673.241 65.0033 672.557 67.11C671.872 69.164 671.161 71.2707 670.424 73.43L668.133 80.066ZM669.081 49.73H680.299L698.706 99.5H687.251L683.38 88.045H665.684L661.813 99.5H650.516L669.081 49.73ZM734.506 49.73V58.262H720.444V99.5H709.621V58.262H695.875V49.73H734.506ZM751.476 49.73V99.5H740.653V49.73H751.476ZM785.001 48.861C788.53 48.861 791.795 49.4403 794.797 50.599C797.799 51.7577 800.38 53.443 802.539 55.655C804.699 57.8143 806.384 60.5003 807.595 63.713C808.859 66.9257 809.491 70.586 809.491 74.694C809.491 78.6967 808.859 82.278 807.595 85.438C806.331 88.598 804.593 91.284 802.381 93.496C800.169 95.708 797.536 97.4197 794.481 98.631C791.479 99.7897 788.214 100.369 784.685 100.369C781.157 100.369 777.891 99.816 774.889 98.71C771.887 97.5513 769.307 95.8923 767.147 93.733C764.988 91.521 763.276 88.835 762.012 85.675C760.801 82.4623 760.195 78.802 760.195 74.694C760.195 70.6913 760.827 67.11 762.091 63.95C763.355 60.7373 765.093 58.025 767.305 55.813C769.517 53.5483 772.124 51.8367 775.126 50.678C778.181 49.4667 781.473 48.861 785.001 48.861ZM771.65 74.694C771.65 77.6433 771.993 80.224 772.677 82.436C773.415 84.5953 774.389 86.4123 775.6 87.887C776.812 89.309 778.207 90.3887 779.787 91.126C781.42 91.8107 783.158 92.153 785.001 92.153C786.792 92.153 788.477 91.8107 790.057 91.126C791.69 90.3887 793.086 89.309 794.244 87.887C795.403 86.4123 796.325 84.5953 797.009 82.436C797.694 80.224 798.036 77.6433 798.036 74.694C798.036 71.6393 797.668 69.006 796.93 66.794C796.246 64.582 795.298 62.765 794.086 61.343C792.875 59.8683 791.453 58.7887 789.82 58.104C788.24 57.4193 786.529 57.077 784.685 57.077C782.842 57.077 781.13 57.4457 779.55 58.183C777.97 58.9203 776.601 60.0263 775.442 61.501C774.284 62.923 773.362 64.74 772.677 66.952C771.993 69.164 771.65 71.7447 771.65 74.694ZM818.11 49.73H827.985L845.128 75.958C846.287 77.7487 847.34 79.513 848.288 81.251C849.289 82.9363 850 84.253 850.421 85.201H850.579C850.263 81.7777 850.105 78.3807 850.105 75.01C850.105 71.5867 850.105 68.137 850.105 64.661V49.73H860.138V99.5H850.263L834.305 75.326C833.621 74.2727 832.936 73.193 832.251 72.087C831.619 70.9283 831.014 69.8223 830.434 68.769C829.855 67.7157 829.328 66.7677 828.854 65.925C828.433 65.0297 828.117 64.2923 827.906 63.713H827.748C828.012 67.347 828.143 70.8493 828.143 74.22C828.196 77.538 828.222 80.935 828.222 84.411V99.5H818.11V49.73Z" fill="white"/>
<defs>
<filter id="filter0_dii_189_120" x="57.7684" y="68.6484" width="106.947" height="69.8252" filterUnits="userSpaceOnUse" color-interpolation-filters="sRGB">
<feFlood flood-opacity="0" result="BackgroundImageFix"/>
<feColorMatrix in="SourceAlpha" type="matrix" values="0 0 0 0 0 0 0 0 0 0 0 0 0 0 0 0 0 0 127 0" result="hardAlpha"/>
<feOffset dx="-6" dy="6"/>
<feGaussianBlur stdDeviation="6"/>
<feComposite in2="hardAlpha" operator="out"/>
<feColorMatrix type="matrix" values="0 0 0 0 0 0 0 0 0 0 0 0 0 0 0 0 0 0 0.25 0"/>
<feBlend mode="normal" in2="BackgroundImageFix" result="effect1_dropShadow_189_120"/>
<feBlend mode="normal" in="SourceGraphic" in2="effect1_dropShadow_189_120" result="shape"/>
<feColorMatrix in="SourceAlpha" type="matrix" values="0 0 0 0 0 0 0 0 0 0 0 0 0 0 0 0 0 0 127 0" result="hardAlpha"/>
<feOffset dx="16" dy="-16"/>
<feGaussianBlur stdDeviation="8"/>
<feComposite in2="hardAlpha" operator="arithmetic" k2="-1" k3="1"/>
<feColorMatrix type="matrix" values="0 0 0 0 0 0 0 0 0 0 0 0 0 0 0 0 0 0 0.25 0"/>
<feBlend mode="normal" in2="shape" result="effect2_innerShadow_189_120"/>
<feColorMatrix in="SourceAlpha" type="matrix" values="0 0 0 0 0 0 0 0 0 0 0 0 0 0 0 0 0 0 127 0" result="hardAlpha"/>
<feOffset dx="-16" dy="16"/>
<feGaussianBlur stdDeviation="8"/>
<feComposite in2="hardAlpha" operator="arithmetic" k2="-1" k3="1"/>
<feColorMatrix type="matrix" values="0 0 0 0 0.941667 0 0 0 0 0.941667 0 0 0 0 0.941667 0 0 0 0.25 0"/>
<feBlend mode="normal" in2="effect2_innerShadow_189_120" result="effect3_innerShadow_189_120"/>
</filter>
<filter id="filter1_dii_189_120" x="28.1869" y="72.6624" width="91.5747" height="91.3376" filterUnits="userSpaceOnUse" color-interpolation-filters="sRGB">
<feFlood flood-opacity="0" result="BackgroundImageFix"/>
<feColorMatrix in="SourceAlpha" type="matrix" values="0 0 0 0 0 0 0 0 0 0 0 0 0 0 0 0 0 0 127 0" result="hardAlpha"/>
<feOffset dx="-6" dy="6"/>
<feGaussianBlur stdDeviation="6"/>
<feComposite in2="hardAlpha" operator="out"/>
<feColorMatrix type="matrix" values="0 0 0 0 0 0 0 0 0 0 0 0 0 0 0 0 0 0 0.25 0"/>
<feBlend mode="normal" in2="BackgroundImageFix" result="effect1_dropShadow_189_120"/>
<feBlend mode="normal" in="SourceGraphic" in2="effect1_dropShadow_189_120" result="shape"/>
<feColorMatrix in="SourceAlpha" type="matrix" values="0 0 0 0 0 0 0 0 0 0 0 0 0 0 0 0 0 0 127 0" result="hardAlpha"/>
<feOffset dx="16" dy="-16"/>
<feGaussianBlur stdDeviation="8"/>
<feComposite in2="hardAlpha" operator="arithmetic" k2="-1" k3="1"/>
<feColorMatrix type="matrix" values="0 0 0 0 0 0 0 0 0 0 0 0 0 0 0 0 0 0 0.25 0"/>
<feBlend mode="normal" in2="shape" result="effect2_innerShadow_189_120"/>
<feColorMatrix in="SourceAlpha" type="matrix" values="0 0 0 0 0 0 0 0 0 0 0 0 0 0 0 0 0 0 127 0" result="hardAlpha"/>
<feOffset dx="-16" dy="16"/>
<feGaussianBlur stdDeviation="8"/>
<feComposite in2="hardAlpha" operator="arithmetic" k2="-1" k3="1"/>
<feColorMatrix type="matrix" values="0 0 0 0 0.629931 0 0 0 0 0.710347 0 0 0 0 0.804167 0 0 0 0.25 0"/>
<feBlend mode="normal" in2="effect2_innerShadow_189_120" result="effect3_innerShadow_189_120"/>
</filter>
<filter id="filter2_dii_189_120" x="0.531616" y="34.9272" width="69.243" height="103.305" filterUnits="userSpaceOnUse" color-interpolation-filters="sRGB">
<feFlood flood-opacity="0" result="BackgroundImageFix"/>
<feColorMatrix in="SourceAlpha" type="matrix" values="0 0 0 0 0 0 0 0 0 0 0 0 0 0 0 0 0 0 127 0" result="hardAlpha"/>
<feOffset dx="-6" dy="6"/>
<feGaussianBlur stdDeviation="6"/>
<feComposite in2="hardAlpha" operator="out"/>
<feColorMatrix type="matrix" values="0 0 0 0 0 0 0 0 0 0 0 0 0 0 0 0 0 0 0.25 0"/>
<feBlend mode="normal" in2="BackgroundImageFix" result="effect1_dropShadow_189_120"/>
<feBlend mode="normal" in="SourceGraphic" in2="effect1_dropShadow_189_120" result="shape"/>
<feColorMatrix in="SourceAlpha" type="matrix" values="0 0 0 0 0 0 0 0 0 0 0 0 0 0 0 0 0 0 127 0" result="hardAlpha"/>
<feOffset dx="16" dy="-16"/>
<feGaussianBlur stdDeviation="8"/>
<feComposite in2="hardAlpha" operator="arithmetic" k2="-1" k3="1"/>
<feColorMatrix type="matrix" values="0 0 0 0 0 0 0 0 0 0 0 0 0 0 0 0 0 0 0.25 0"/>
<feBlend mode="normal" in2="shape" result="effect2_innerShadow_189_120"/>
<feColorMatrix in="SourceAlpha" type="matrix" values="0 0 0 0 0 0 0 0 0 0 0 0 0 0 0 0 0 0 127 0" result="hardAlpha"/>
<feOffset dx="-16" dy="16"/>
<feGaussianBlur stdDeviation="8"/>
<feComposite in2="hardAlpha" operator="arithmetic" k2="-1" k3="1"/>
<feColorMatrix type="matrix" values="0 0 0 0 0.941667 0 0 0 0 0.941667 0 0 0 0 0.941667 0 0 0 0.25 0"/>
<feBlend mode="normal" in2="effect2_innerShadow_189_120" result="effect3_innerShadow_189_120"/>
</filter>
<filter id="filter3_dii_189_120" x="44.6396" y="-10" width="91.4486" height="92.2585" filterUnits="userSpaceOnUse" color-interpolation-filters="sRGB">
<feFlood flood-opacity="0" result="BackgroundImageFix"/>
<feColorMatrix in="SourceAlpha" type="matrix" values="0 0 0 0 0 0 0 0 0 0 0 0 0 0 0 0 0 0 127 0" result="hardAlpha"/>
<feOffset dx="-6" dy="6"/>
<feGaussianBlur stdDeviation="6"/>
<feComposite in2="hardAlpha" operator="out"/>
<feColorMatrix type="matrix" values="0 0 0 0 0 0 0 0 0 0 0 0 0 0 0 0 0 0 0.25 0"/>
<feBlend mode="normal" in2="BackgroundImageFix" result="effect1_dropShadow_189_120"/>
<feBlend mode="normal" in="SourceGraphic" in2="effect1_dropShadow_189_120" result="shape"/>
<feColorMatrix in="SourceAlpha" type="matrix" values="0 0 0 0 0 0 0 0 0 0 0 0 0 0 0 0 0 0 127 0" result="hardAlpha"/>
<feOffset dx="16" dy="-16"/>
<feGaussianBlur stdDeviation="8"/>
<feComposite in2="hardAlpha" operator="arithmetic" k2="-1" k3="1"/>
<feColorMatrix type="matrix" values="0 0 0 0 0 0 0 0 0 0 0 0 0 0 0 0 0 0 0.25 0"/>
<feBlend mode="normal" in2="shape" result="effect2_innerShadow_189_120"/>
<feColorMatrix in="SourceAlpha" type="matrix" values="0 0 0 0 0 0 0 0 0 0 0 0 0 0 0 0 0 0 127 0" result="hardAlpha"/>
<feOffset dx="-16" dy="16"/>
<feGaussianBlur stdDeviation="8"/>
<feComposite in2="hardAlpha" operator="arithmetic" k2="-1" k3="1"/>
<feColorMatrix type="matrix" values="0 0 0 0 0.941667 0 0 0 0 0.941667 0 0 0 0 0.941667 0 0 0 0.25 0"/>
<feBlend mode="normal" in2="effect2_innerShadow_189_120" result="effect3_innerShadow_189_120"/>
</filter>
<filter id="filter4_dii_189_120" x="94.5142" y="15.947" width="69.2795" height="103.012" filterUnits="userSpaceOnUse" color-interpolation-filters="sRGB">
<feFlood flood-opacity="0" result="BackgroundImageFix"/>
<feColorMatrix in="SourceAlpha" type="matrix" values="0 0 0 0 0 0 0 0 0 0 0 0 0 0 0 0 0 0 127 0" result="hardAlpha"/>
<feOffset dx="-6" dy="6"/>
<feGaussianBlur stdDeviation="6"/>
<feComposite in2="hardAlpha" operator="out"/>
<feColorMatrix type="matrix" values="0 0 0 0 0 0 0 0 0 0 0 0 0 0 0 0 0 0 0.25 0"/>
<feBlend mode="normal" in2="BackgroundImageFix" result="effect1_dropShadow_189_120"/>
<feBlend mode="normal" in="SourceGraphic" in2="effect1_dropShadow_189_120" result="shape"/>
<feColorMatrix in="SourceAlpha" type="matrix" values="0 0 0 0 0 0 0 0 0 0 0 0 0 0 0 0 0 0 127 0" result="hardAlpha"/>
<feOffset dx="16" dy="-16"/>
<feGaussianBlur stdDeviation="8"/>
<feComposite in2="hardAlpha" operator="arithmetic" k2="-1" k3="1"/>
<feColorMatrix type="matrix" values="0 0 0 0 0 0 0 0 0 0 0 0 0 0 0 0 0 0 0.25 0"/>
<feBlend mode="normal" in2="shape" result="effect2_innerShadow_189_120"/>
<feColorMatrix in="SourceAlpha" type="matrix" values="0 0 0 0 0 0 0 0 0 0 0 0 0 0 0 0 0 0 127 0" result="hardAlpha"/>
<feOffset dx="-16" dy="16"/>
<feGaussianBlur stdDeviation="8"/>
<feComposite in2="hardAlpha" operator="arithmetic" k2="-1" k3="1"/>
<feColorMatrix type="matrix" values="0 0 0 0 0.702135 0 0 0 0 0.803073 0 0 0 0 0.920833 0 0 0 0.25 0"/>
<feBlend mode="normal" in2="effect2_innerShadow_189_120" result="effect3_innerShadow_189_120"/>
</filter>
<filter id="filter5_dii_189_120" x="0" y="15.6794" width="106.277" height="69.8403" filterUnits="userSpaceOnUse" color-interpolation-filters="sRGB">
<feFlood flood-opacity="0" result="BackgroundImageFix"/>
<feColorMatrix in="SourceAlpha" type="matrix" values="0 0 0 0 0 0 0 0 0 0 0 0 0 0 0 0 0 0 127 0" result="hardAlpha"/>
<feOffset dx="-6" dy="6"/>
<feGaussianBlur stdDeviation="6"/>
<feComposite in2="hardAlpha" operator="out"/>
<feColorMatrix type="matrix" values="0 0 0 0 0 0 0 0 0 0 0 0 0 0 0 0 0 0 0.25 0"/>
<feBlend mode="normal" in2="BackgroundImageFix" result="effect1_dropShadow_189_120"/>
<feBlend mode="normal" in="SourceGraphic" in2="effect1_dropShadow_189_120" result="shape"/>
<feColorMatrix in="SourceAlpha" type="matrix" values="0 0 0 0 0 0 0 0 0 0 0 0 0 0 0 0 0 0 127 0" result="hardAlpha"/>
<feOffset dx="16" dy="-16"/>
<feGaussianBlur stdDeviation="8"/>
<feComposite in2="hardAlpha" operator="arithmetic" k2="-1" k3="1"/>
<feColorMatrix type="matrix" values="0 0 0 0 0 0 0 0 0 0 0 0 0 0 0 0 0 0 0.25 0"/>
<feBlend mode="normal" in2="shape" result="effect2_innerShadow_189_120"/>
<feColorMatrix in="SourceAlpha" type="matrix" values="0 0 0 0 0 0 0 0 0 0 0 0 0 0 0 0 0 0 127 0" result="hardAlpha"/>
<feOffset dx="-16" dy="16"/>
<feGaussianBlur stdDeviation="8"/>
<feComposite in2="hardAlpha" operator="arithmetic" k2="-1" k3="1"/>
<feColorMatrix type="matrix" values="0 0 0 0 1 0 0 0 0 1 0 0 0 0 1 0 0 0 0.25 0"/>
<feBlend mode="normal" in2="effect2_innerShadow_189_120" result="effect3_innerShadow_189_120"/>
</filter>
</defs>
</svg>
