<svg width="36" height="32" viewBox="0 0 36 32" fill="none" xmlns="http://www.w3.org/2000/svg">
<rect width="36" height="32" rx="8" fill="#F9D000"/>
<path d="M20.0001 5H16.0001C15.4501 5 15.0001 5.45 15.0001 6C15.0001 6.55 15.4501 7 16.0001 7H20.0001C20.5501 7 21.0001 6.55 21.0001 6C21.0001 5.45 20.5501 5 20.0001 5ZM18.0001 18C18.5501 18 19.0001 17.55 19.0001 17V13C19.0001 12.45 18.5501 12 18.0001 12C17.4501 12 17.0001 12.45 17.0001 13V17C17.0001 17.55 17.4501 18 18.0001 18ZM25.0301 11.39L25.7801 10.64C26.1601 10.26 26.1701 9.63 25.7801 9.24L25.7701 9.23C25.3801 8.84 24.7601 8.85 24.3701 9.23L23.6201 9.98C22.0701 8.74 20.1201 8 18.0001 8C13.2001 8 9.1201 11.96 9.0001 16.76C8.8701 21.84 12.9401 26 18.0001 26C22.9801 26 27.0001 21.97 27.0001 17C27.0001 14.88 26.2601 12.93 25.0301 11.39ZM18.0001 24C14.1301 24 11.0001 20.87 11.0001 17C11.0001 13.13 14.1301 10 18.0001 10C21.8701 10 25.0001 13.13 25.0001 17C25.0001 20.87 21.8701 24 18.0001 24Z" fill="white"/>
</svg>
