<svg width="22" height="23" viewBox="0 0 22 23" fill="none" xmlns="http://www.w3.org/2000/svg">
<path fill-rule="evenodd" clip-rule="evenodd" d="M2.94829 11.5C3.4778 12.2303 4.56302 13.6063 5.99204 14.8043C7.47375 16.0465 9.20875 17 11.0001 17C12.7914 17 14.5264 16.0465 16.0081 14.8043C17.4371 13.6063 18.5224 12.2303 19.0519 11.5C18.5224 10.7697 17.4371 9.39371 16.0081 8.19567C14.5264 6.95346 12.7914 5.99999 11.0001 5.99999C9.20875 5.99999 7.47375 6.95346 5.99204 8.19567C4.56302 9.39371 3.4778 10.7697 2.94829 11.5ZM4.8142 6.79075C6.42912 5.43686 8.57667 4.16666 11.0001 4.16666C13.4235 4.16666 15.571 5.43686 17.186 6.79075C18.8165 8.15776 20.023 9.70987 20.5805 10.4852C21.019 11.0952 21.019 11.9048 20.5805 12.5147C20.023 13.2901 18.8165 14.8422 17.186 16.2092C15.571 17.5631 13.4235 18.8333 11.0001 18.8333C8.57667 18.8333 6.42912 17.5631 4.8142 16.2092C3.18363 14.8422 1.97715 13.2901 1.4197 12.5147C0.981195 11.9048 0.981194 11.0952 1.4197 10.4852C1.97715 9.70987 3.18363 8.15776 4.8142 6.79075Z" fill="white"/>
<path fill-rule="evenodd" clip-rule="evenodd" d="M11.0001 13.3333C12.0126 13.3333 12.8334 12.5125 12.8334 11.5C12.8334 10.4875 12.0126 9.66666 11.0001 9.66666C9.98756 9.66666 9.16675 10.4875 9.16675 11.5C9.16675 12.5125 9.98756 13.3333 11.0001 13.3333ZM11.0001 15.1667C13.0251 15.1667 14.6667 13.525 14.6667 11.5C14.6667 9.47495 13.0251 7.83332 11.0001 7.83332C8.97504 7.83332 7.33341 9.47495 7.33341 11.5C7.33341 13.525 8.97504 15.1667 11.0001 15.1667Z" fill="white"/>
</svg>
