<svg width="12" height="12" viewBox="0 0 12 12" fill="none" xmlns="http://www.w3.org/2000/svg">
<mask id="mask0_303_24945" style="mask-type:alpha" maskUnits="userSpaceOnUse" x="0" y="0" width="12" height="12">
<path fill-rule="evenodd" clip-rule="evenodd" d="M3 8.25H1.5V10.5H3V8.25ZM6.75 5.25H5.25V10.5H6.75V5.25ZM10.5 1.5L9 1.5V10.5H10.5V1.5ZM9 0.75C8.58579 0.75 8.25 1.08579 8.25 1.5V10.5C8.25 10.9142 8.58579 11.25 9 11.25H10.5C10.9142 11.25 11.25 10.9142 11.25 10.5V1.5C11.25 1.08579 10.9142 0.75 10.5 0.75H9ZM4.5 5.25C4.5 4.83579 4.83579 4.5 5.25 4.5H6.75C7.16421 4.5 7.5 4.83579 7.5 5.25V10.5C7.5 10.9142 7.16421 11.25 6.75 11.25H5.25C4.83579 11.25 4.5 10.9142 4.5 10.5V5.25ZM0.75 8.25C0.75 7.83579 1.08579 7.5 1.5 7.5H3C3.41421 7.5 3.75 7.83579 3.75 8.25V10.5C3.75 10.9142 3.41421 11.25 3 11.25H1.5C1.08579 11.25 0.75 10.9142 0.75 10.5V8.25Z" fill="black"/>
</mask>
<g mask="url(#mask0_303_24945)">
<rect width="12" height="12" fill="#2A2F35"/>
</g>
</svg>
