<svg width="21" height="17" viewBox="0 0 21 17" fill="none" xmlns="http://www.w3.org/2000/svg">
<path fill-rule="evenodd" clip-rule="evenodd" d="M10.4933 5.25488C9.52229 5.25488 8.59102 5.61781 7.9044 6.26383C7.21777 6.90985 6.83203 7.78604 6.83203 8.69965C6.83203 9.61326 7.21777 10.4894 7.9044 11.1355C8.59102 11.7815 9.52229 12.1444 10.4933 12.1444C11.4644 12.1444 12.3956 11.7815 13.0822 11.1355C13.7689 10.4894 14.1546 9.61326 14.1546 8.69965C14.1546 7.78604 13.7689 6.90985 13.0822 6.26383C12.3956 5.61781 11.4644 5.25488 10.4933 5.25488ZM8.29655 8.69965C8.29655 8.15148 8.52799 7.62577 8.93997 7.23816C9.35194 6.85055 9.9107 6.63279 10.4933 6.63279C11.0759 6.63279 11.6347 6.85055 12.0467 7.23816C12.4587 7.62577 12.6901 8.15148 12.6901 8.69965C12.6901 9.24782 12.4587 9.77353 12.0467 10.1611C11.6347 10.5488 11.0759 10.7665 10.4933 10.7665C9.9107 10.7665 9.35194 10.5488 8.93997 10.1611C8.52799 9.77353 8.29655 9.24782 8.29655 8.69965Z" fill="#8B8B8B"/>
<path fill-rule="evenodd" clip-rule="evenodd" d="M10.4957 0.662109C6.08848 0.662109 3.11942 3.14602 1.39617 5.25238L1.36591 5.29004C0.975368 5.7668 0.61705 6.20497 0.37394 6.72306C0.113256 7.27882 0 7.88418 0 8.6999C0 9.51562 0.113256 10.121 0.37394 10.6767C0.618026 11.1948 0.976344 11.6339 1.36591 12.1098L1.39715 12.1474C3.11942 14.2538 6.08848 16.7377 10.4957 16.7377C14.9029 16.7377 17.872 14.2538 19.5952 12.1474L19.6255 12.1098C20.016 11.6339 20.3744 11.1948 20.6175 10.6767C20.8782 10.121 20.9914 9.51562 20.9914 8.6999C20.9914 7.88418 20.8782 7.27882 20.6175 6.72306C20.3734 6.20497 20.0151 5.7668 19.6255 5.29004L19.5943 5.25238C17.872 3.14602 14.9029 0.662109 10.4957 0.662109ZM2.55802 6.0929C4.14751 4.14821 6.73678 2.04002 10.4957 2.04002C14.2546 2.04002 16.8429 4.14821 18.4334 6.0929C18.863 6.6165 19.1129 6.92883 19.2779 7.27974C19.4322 7.6086 19.5269 8.01003 19.5269 8.6999C19.5269 9.38977 19.4322 9.7912 19.2779 10.1201C19.1129 10.471 18.862 10.7833 18.4344 11.3069C16.8419 13.2516 14.2546 15.3598 10.4957 15.3598C6.73678 15.3598 4.14849 13.2516 2.55802 11.3069C2.12843 10.7833 1.87849 10.471 1.71348 10.1201C1.55922 9.7912 1.46452 9.38977 1.46452 8.6999C1.46452 8.01003 1.55922 7.6086 1.71348 7.27974C1.87849 6.92883 2.13038 6.6165 2.55802 6.0929Z" fill="#8B8B8B"/>
</svg>
