<svg width="16" height="20" viewBox="0 0 16 20" fill="none" xmlns="http://www.w3.org/2000/svg">
<path d="M8 0.662109L0 3.37639V11.5193C0 16.0169 3.58125 19.6621 8 19.6621C12.4187 19.6621 16 16.0169 16 11.5193V3.37639L8 0.662109ZM14.5 11.5193C14.5 15.1729 11.5896 18.1353 8 18.1353C4.41042 18.1353 1.5 15.1729 1.5 11.5193V4.52148L8 2.1889L14.5 4.52148V11.5193Z" fill="#8B8B8B"/>
<path d="M5.21567 9.37706C5.14615 9.30598 5.06353 9.24958 4.97254 9.21109C4.88155 9.1726 4.78399 9.15279 4.68546 9.15279C4.58693 9.15279 4.48937 9.1726 4.39838 9.21109C4.30739 9.24958 4.22476 9.30598 4.15525 9.37706C4.08542 9.44781 4.03001 9.53191 3.9922 9.62452C3.95439 9.71714 3.93492 9.81644 3.93492 9.91673C3.93492 10.017 3.95439 10.1163 3.9922 10.2089C4.03001 10.3016 4.08542 10.3857 4.15525 10.4564L6.89483 13.2449C6.96059 13.312 7.03869 13.3652 7.12466 13.4015C7.21064 13.4378 7.3028 13.4564 7.39588 13.4564C7.48895 13.4564 7.58112 13.4378 7.66709 13.4015C7.75307 13.3652 7.83116 13.312 7.89692 13.2449L12.5532 8.50551C12.619 8.43859 12.6713 8.35909 12.707 8.27158C12.7426 8.18407 12.761 8.09026 12.761 7.99553C12.761 7.90079 12.7426 7.80698 12.707 7.71947C12.6713 7.63196 12.619 7.55246 12.5532 7.48554L12.4948 7.42616C12.4291 7.35911 12.351 7.30591 12.265 7.26962C12.179 7.23332 12.0869 7.21464 11.9938 7.21464C11.9007 7.21464 11.8086 7.23332 11.7226 7.26962C11.6366 7.30591 11.5585 7.35911 11.4928 7.42616L7.39483 11.5951L5.21567 9.37706Z" fill="#8B8B8B"/>
</svg>
