<?xml version="1.0" standalone="no"?>
<!DOCTYPE svg PUBLIC "-//W3C//DTD SVG 20010904//EN"
 "http://www.w3.org/TR/2001/REC-SVG-20010904/DTD/svg10.dtd">
<svg version="1.0" xmlns="http://www.w3.org/2000/svg"
 width="256.000000pt" height="256.000000pt" viewBox="0 0 256.000000 256.000000"
 preserveAspectRatio="xMidYMid meet">

<g transform="translate(0.000000,256.000000) scale(0.100000,-0.100000)"
fill="#000000" stroke="none">
<path d="M972 2545 c-81 -25 -140 -75 -180 -150 l-27 -50 -5 -325 c-6 -392 -5
-409 21 -403 43 12 49 38 49 221 0 137 3 179 16 203 29 57 45 59 463 59 l379
0 18 -27 c16 -24 20 -54 24 -224 5 -205 11 -229 51 -229 18 0 19 12 19 245 l0
244 44 45 c26 26 49 60 55 82 6 22 11 103 11 182 l0 142 -447 -1 c-344 0 -458
-3 -491 -14z"/>
<path d="M1002 1898 c-6 -6 -12 -20 -12 -29 0 -31 25 -40 110 -37 66 2 85 7
94 21 8 12 8 22 0 35 -9 13 -28 18 -95 20 -57 2 -88 -1 -97 -10z"/>
<path d="M1360 1895 c-7 -8 -10 -25 -6 -40 7 -26 7 -26 98 -23 74 2 93 6 102
21 8 12 8 22 0 35 -16 24 -174 31 -194 7z"/>
<path d="M1072 1788 c-16 -16 -15 -28 3 -28 21 0 20 -66 -1 -78 -20 -11 -15
-61 9 -76 12 -8 22 -8 35 0 14 9 17 26 17 100 0 88 0 89 -25 92 -14 2 -31 -3
-38 -10z"/>
<path d="M1422 1788 c-16 -16 -15 -28 3 -28 11 0 15 -11 15 -35 0 -22 -6 -38
-15 -41 -19 -8 -19 -58 0 -74 8 -7 25 -10 40 -6 26 7 26 7 23 99 -3 90 -4 92
-28 95 -14 2 -31 -3 -38 -10z"/>
<path d="M1104 1345 c-3 -8 4 -35 16 -60 53 -109 192 -135 285 -54 35 31 61
89 51 114 -9 23 -50 18 -61 -7 -9 -22 -16 -23 -115 -23 -99 0 -106 1 -115 23
-11 25 -52 30 -61 7z"/>
<path d="M1686 1130 c-45 -58 -128 -122 -195 -150 l-31 -12 0 -90 c0 -69 -4
-98 -20 -127 -67 -132 -255 -131 -319 1 -16 35 -21 63 -21 130 0 78 -2 87 -20
93 -45 14 -167 107 -205 154 l-39 51 -34 -33 c-52 -49 -93 -113 -118 -185
l-22 -65 -74 -21 c-91 -27 -134 -53 -192 -117 -53 -59 -85 -139 -93 -229 l-6
-65 74 -76 c245 -250 558 -382 909 -382 267 0 490 68 710 216 87 59 258 221
266 252 10 39 -16 158 -48 217 -49 93 -134 156 -248 187 -44 12 -46 14 -58 64
-18 75 -78 168 -149 230 -19 17 -21 16 -67 -43z m-620 -561 c3 -6 8 -91 10
-189 2 -140 0 -181 -11 -196 -11 -15 -17 -17 -32 -8 -16 10 -18 30 -21 195 -1
101 0 189 2 196 6 16 42 17 52 2z m498 -5 c3 -9 6 -93 6 -188 0 -134 -3 -176
-14 -192 -12 -15 -18 -17 -33 -8 -16 10 -18 30 -21 195 -1 101 0 189 2 196 7
18 53 16 60 -3z"/>
</g>
</svg>
