<svg width="28" height="28" viewBox="0 0 28 28" fill="none" xmlns="http://www.w3.org/2000/svg">
<path d="M14 6C14.5523 6 15 6.44772 15 7C15 7.55228 14.5523 8 14 8C13.4477 8 13 7.55228 13 7C13 6.44772 13.4477 6 14 6ZM14 13C14.5523 13 15 13.4477 15 14C15 14.5523 14.5523 15 14 15C13.4477 15 13 14.5523 13 14C13 13.4477 13.4477 13 14 13ZM14 20C14.5523 20 15 20.4477 15 21C15 21.5523 14.5523 22 14 22C13.4477 22 13 21.5523 13 21C13 20.4477 13.4477 20 14 20Z" fill="black" stroke="black" stroke-width="1.5"/>
</svg>
