<svg width="28" height="28" viewBox="0 0 28 28" fill="none" xmlns="http://www.w3.org/2000/svg">
<path d="M14 17.5C15.933 17.5 17.5 15.933 17.5 14C17.5 12.067 15.933 10.5 14 10.5C12.067 10.5 10.5 12.067 10.5 14C10.5 15.933 12.067 17.5 14 17.5Z" stroke="#105FBB" stroke-width="1.5" stroke-miterlimit="10" stroke-linecap="round" stroke-linejoin="round"/>
<path d="M2.3335 15.0265V12.9732C2.3335 11.7598 3.32516 10.7565 4.55016 10.7565C6.66183 10.7565 7.52516 9.26318 6.4635 7.43151C5.85683 6.38151 6.2185 5.01651 7.28016 4.40984L9.2985 3.25484C10.2202 2.70651 11.4102 3.03318 11.9585 3.95484L12.0868 4.17651C13.1368 6.00818 14.8635 6.00818 15.9252 4.17651L16.0535 3.95484C16.6018 3.03318 17.7918 2.70651 18.7135 3.25484L20.7318 4.40984C21.7935 5.01651 22.1552 6.38151 21.5485 7.43151C20.4868 9.26318 21.3502 10.7565 23.4618 10.7565C24.6752 10.7565 25.6785 11.7482 25.6785 12.9732V15.0265C25.6785 16.2398 24.6868 17.2432 23.4618 17.2432C21.3502 17.2432 20.4868 18.7365 21.5485 20.5682C22.1552 21.6298 21.7935 22.9832 20.7318 23.5898L18.7135 24.7448C17.7918 25.2932 16.6018 24.9665 16.0535 24.0448L15.9252 23.8232C14.8752 21.9915 13.1485 21.9915 12.0868 23.8232L11.9585 24.0448C11.4102 24.9665 10.2202 25.2932 9.2985 24.7448L7.28016 23.5898C6.2185 22.9832 5.85683 21.6182 6.4635 20.5682C7.52516 18.7365 6.66183 17.2432 4.55016 17.2432C3.32516 17.2432 2.3335 16.2398 2.3335 15.0265Z" stroke="#105FBB" stroke-width="1.5" stroke-miterlimit="10" stroke-linecap="round" stroke-linejoin="round"/>
</svg>
