<svg width="28" height="28" viewBox="0 0 28 28" fill="none" xmlns="http://www.w3.org/2000/svg">
<path fill-rule="evenodd" clip-rule="evenodd" d="M9.11183 2.33337C4.86516 2.33337 2.3335 4.86504 2.3335 9.11171V18.8767C2.3335 23.135 4.86516 25.6667 9.11183 25.6667H18.8768C23.1235 25.6667 25.6552 23.135 25.6552 18.8884V9.11171C25.6668 4.86504 23.1352 2.33337 18.8885 2.33337H9.11183ZM18.8768 14.2684C18.4218 14.2684 18.0602 13.9067 18.0602 13.4517V13.2417L14.8868 16.415C14.7118 16.59 14.4785 16.6717 14.2335 16.6484C13.9885 16.625 13.7668 16.4967 13.6385 16.2867L12.4485 14.5134L9.67183 17.29C9.5085 17.4534 9.31016 17.5234 9.10016 17.5234C8.89016 17.5234 8.68016 17.4417 8.5285 17.29C8.2135 16.975 8.2135 16.4617 8.5285 16.135L12.0052 12.6584C12.1802 12.4834 12.4135 12.4017 12.6585 12.425C12.9035 12.4484 13.1252 12.5767 13.2535 12.7867L14.4435 14.56L16.9052 12.0984H16.6952C16.2402 12.0984 15.8785 11.7367 15.8785 11.2817C15.8785 10.8267 16.2402 10.465 16.6952 10.465H18.8652C18.9702 10.465 19.0752 10.4884 19.1802 10.5234C19.3785 10.605 19.5418 10.7684 19.6235 10.9667C19.6702 11.0717 19.6818 11.1767 19.6818 11.2817V13.4517H19.6935C19.6935 13.9067 19.3318 14.2684 18.8768 14.2684Z" fill="#105FBB"/>
</svg>
