<svg width="28" height="28" viewBox="0 0 28 28" fill="none" xmlns="http://www.w3.org/2000/svg">
<path d="M9.1001 16.0999V11.2" stroke="#105FBB" stroke-width="1.5" stroke-linecap="round" stroke-linejoin="round"/>
<path d="M9.27501 20.9999C10.5315 20.9999 11.55 19.9814 11.55 18.7249C11.55 17.4685 10.5315 16.45 9.27501 16.45C8.01857 16.45 7 17.4685 7 18.7249C7 19.9814 8.01857 20.9999 9.27501 20.9999Z" stroke="#105FBB" stroke-width="1.5" stroke-linecap="round" stroke-linejoin="round"/>
<path d="M9.09999 11.2C10.2598 11.2 11.2 10.2598 11.2 9.09999C11.2 7.94019 10.2598 7 9.09999 7C7.94019 7 7 7.94019 7 9.09999C7 10.2598 7.94019 11.2 9.09999 11.2Z" stroke="#105FBB" stroke-width="1.5" stroke-linecap="round" stroke-linejoin="round"/>
<path d="M18.8998 11.2C20.0596 11.2 20.9998 10.2598 20.9998 9.09999C20.9998 7.94019 20.0596 7 18.8998 7C17.74 7 16.7998 7.94019 16.7998 9.09999C16.7998 10.2598 17.74 11.2 18.8998 11.2Z" stroke="#105FBB" stroke-width="1.5" stroke-linecap="round" stroke-linejoin="round"/>
<path d="M9.19336 16.1C9.50836 14.875 10.6283 13.965 11.9467 13.9767L14.35 13.9883C16.1817 14 17.745 12.8216 18.3167 11.1766" stroke="#105FBB" stroke-width="1.5" stroke-linecap="round" stroke-linejoin="round"/>
<path d="M10.5002 2.33337H17.5002C23.3335 2.33337 25.6668 4.66671 25.6668 10.5V17.5C25.6668 23.3334 23.3335 25.6667 17.5002 25.6667H10.5002C4.66683 25.6667 2.3335 23.3334 2.3335 17.5V10.5C2.3335 4.66671 4.66683 2.33337 10.5002 2.33337Z" stroke="#105FBB" stroke-width="1.5" stroke-linecap="round" stroke-linejoin="round"/>
</svg>
