<svg width="20" height="20" viewBox="0 0 20 20" fill="none" xmlns="http://www.w3.org/2000/svg">
<path d="M15.833 13.9583C15.4913 13.9583 15.208 13.675 15.208 13.3333V5.41667C15.208 4.84167 14.7413 4.375 14.1663 4.375H9.58301C9.24134 4.375 8.95801 4.09167 8.95801 3.75C8.95801 3.40833 9.24134 3.125 9.58301 3.125H14.1663C15.433 3.125 16.458 4.15 16.458 5.41667V13.3333C16.458 13.675 16.1747 13.9583 15.833 13.9583Z" fill="#292D32"/>
<path d="M11.667 6.45828C11.5253 6.45828 11.3837 6.40829 11.267 6.31662L8.76698 4.23329C8.62532 4.11662 8.54199 3.94161 8.54199 3.74994C8.54199 3.55828 8.62532 3.3916 8.76698 3.2666L11.267 1.18326C11.5337 0.958262 11.9253 0.99996 12.1503 1.26663C12.3753 1.53329 12.3337 1.92496 12.067 2.14996L10.142 3.74994L12.067 5.34993C12.3337 5.57493 12.367 5.96659 12.1503 6.23326C12.0253 6.38326 11.842 6.45828 11.667 6.45828Z" fill="#292D32"/>
<path d="M15.833 18.9583C14.108 18.9583 12.708 17.5583 12.708 15.8333C12.708 14.1083 14.108 12.7083 15.833 12.7083C17.558 12.7083 18.958 14.1083 18.958 15.8333C18.958 17.5583 17.558 18.9583 15.833 18.9583ZM15.833 13.9583C14.7997 13.9583 13.958 14.8 13.958 15.8333C13.958 16.8667 14.7997 17.7083 15.833 17.7083C16.8663 17.7083 17.708 16.8667 17.708 15.8333C17.708 14.8 16.8663 13.9583 15.833 13.9583Z" fill="#292D32"/>
<path d="M10.417 16.875H5.83366C4.56699 16.875 3.54199 15.85 3.54199 14.5833V6.66667C3.54199 6.32501 3.82533 6.04167 4.16699 6.04167C4.50866 6.04167 4.79199 6.32501 4.79199 6.66667V14.5833C4.79199 15.1583 5.25866 15.625 5.83366 15.625H10.417C10.7587 15.625 11.042 15.9083 11.042 16.25C11.042 16.5917 10.7587 16.875 10.417 16.875Z" fill="#292D32"/>
<path d="M8.33311 18.9583C8.15811 18.9583 7.97479 18.8833 7.84979 18.7333C7.62479 18.4666 7.66643 18.0749 7.9331 17.8499L9.8581 16.2499L7.9331 14.65C7.66643 14.425 7.63312 14.0333 7.84979 13.7666C8.07479 13.5 8.46645 13.4666 8.73312 13.6833L11.2331 15.7666C11.3748 15.8833 11.4581 16.0583 11.4581 16.2499C11.4581 16.4416 11.3748 16.6083 11.2331 16.7333L8.73312 18.8166C8.61645 18.9083 8.47478 18.9583 8.33311 18.9583Z" fill="#292D32"/>
<path d="M4.16699 7.29167C2.44199 7.29167 1.04199 5.89167 1.04199 4.16667C1.04199 2.44167 2.44199 1.04167 4.16699 1.04167C5.89199 1.04167 7.29199 2.44167 7.29199 4.16667C7.29199 5.89167 5.89199 7.29167 4.16699 7.29167ZM4.16699 2.29167C3.13366 2.29167 2.29199 3.13334 2.29199 4.16667C2.29199 5.20001 3.13366 6.04167 4.16699 6.04167C5.20033 6.04167 6.04199 5.20001 6.04199 4.16667C6.04199 3.13334 5.20033 2.29167 4.16699 2.29167Z" fill="#292D32"/>
</svg>
