<svg width="20" height="20" viewBox="0 0 20 20" fill="none" xmlns="http://www.w3.org/2000/svg">
<path d="M12.5001 18.9582H7.50008C2.97508 18.9582 1.04175 17.0248 1.04175 12.4998V7.49984C1.04175 2.97484 2.97508 1.0415 7.50008 1.0415H12.5001C17.0251 1.0415 18.9584 2.97484 18.9584 7.49984V12.4998C18.9584 17.0248 17.0251 18.9582 12.5001 18.9582ZM7.50008 2.2915C3.65841 2.2915 2.29175 3.65817 2.29175 7.49984V12.4998C2.29175 16.3415 3.65841 17.7082 7.50008 17.7082H12.5001C16.3417 17.7082 17.7084 16.3415 17.7084 12.4998V7.49984C17.7084 3.65817 16.3417 2.2915 12.5001 2.2915H7.50008Z" fill="#292D32"/>
<path d="M12.9834 16.0415C12.6417 16.0415 12.3584 15.7582 12.3584 15.4165V12.1665C12.3584 11.8248 12.6417 11.5415 12.9834 11.5415C13.3251 11.5415 13.6084 11.8248 13.6084 12.1665V15.4165C13.6084 15.7582 13.3251 16.0415 12.9834 16.0415Z" fill="#292D32"/>
<path d="M12.9834 6.8335C12.6417 6.8335 12.3584 6.55016 12.3584 6.2085V4.5835C12.3584 4.24183 12.6417 3.9585 12.9834 3.9585C13.3251 3.9585 13.6084 4.24183 13.6084 4.5835V6.2085C13.6084 6.55016 13.3251 6.8335 12.9834 6.8335Z" fill="#292D32"/>
<path d="M12.9833 11.1668C11.4417 11.1668 10.1917 9.91683 10.1917 8.37516C10.1917 6.8335 11.4417 5.5835 12.9833 5.5835C14.525 5.5835 15.775 6.8335 15.775 8.37516C15.775 9.91683 14.5167 11.1668 12.9833 11.1668ZM12.9833 6.8335C12.1333 6.8335 11.4417 7.52516 11.4417 8.37516C11.4417 9.22516 12.1333 9.91683 12.9833 9.91683C13.8333 9.91683 14.525 9.22516 14.525 8.37516C14.525 7.52516 13.825 6.8335 12.9833 6.8335Z" fill="#292D32"/>
<path d="M7.0166 16.0415C6.67493 16.0415 6.3916 15.7582 6.3916 15.4165V13.7915C6.3916 13.4498 6.67493 13.1665 7.0166 13.1665C7.35827 13.1665 7.6416 13.4498 7.6416 13.7915V15.4165C7.6416 15.7582 7.3666 16.0415 7.0166 16.0415Z" fill="#292D32"/>
<path d="M7.0166 8.4585C6.67493 8.4585 6.3916 8.17516 6.3916 7.8335V4.5835C6.3916 4.24183 6.67493 3.9585 7.0166 3.9585C7.35827 3.9585 7.6416 4.24183 7.6416 4.5835V7.8335C7.6416 8.17516 7.3666 8.4585 7.0166 8.4585Z" fill="#292D32"/>
<path d="M7.01676 14.4168C5.4751 14.4168 4.2251 13.1668 4.2251 11.6252C4.2251 10.0835 5.4751 8.8335 7.01676 8.8335C8.55843 8.8335 9.80843 10.0835 9.80843 11.6252C9.80843 13.1668 8.55843 14.4168 7.01676 14.4168ZM7.01676 10.0835C6.16676 10.0835 5.4751 10.7752 5.4751 11.6252C5.4751 12.4752 6.16676 13.1668 7.01676 13.1668C7.86676 13.1668 8.55843 12.4752 8.55843 11.6252C8.55843 10.7752 7.8751 10.0835 7.01676 10.0835Z" fill="#292D32"/>
</svg>
