<svg width="26" height="26" viewBox="0 0 26 26" fill="none" xmlns="http://www.w3.org/2000/svg">
<path d="M17.539 2.16667H8.46067C4.51734 2.16667 2.1665 4.5175 2.1665 8.46084V17.5283C2.1665 21.4825 4.51734 23.8333 8.46067 23.8333H17.5282C21.4715 23.8333 23.8223 21.4825 23.8223 17.5392V8.46084C23.8332 4.5175 21.4823 2.16667 17.539 2.16667ZM8.309 5.95834C8.309 5.51417 8.67734 5.14584 9.1215 5.14584C9.56567 5.14584 9.934 5.51417 9.934 5.95834V10.1833C9.934 10.6275 9.56567 10.9958 9.1215 10.9958C8.67734 10.9958 8.309 10.6275 8.309 10.1833V5.95834ZM10.2875 17.8131C10.0831 17.9013 9.934 18.0932 9.934 18.3158V20.0417C9.934 20.4858 9.56567 20.8542 9.1215 20.8542C8.67734 20.8542 8.309 20.4858 8.309 20.0417V18.3158C8.309 18.0932 8.15985 17.9014 7.95553 17.813C6.90613 17.3592 6.17484 16.324 6.17484 15.1125C6.17484 13.4875 7.4965 12.155 9.1215 12.155C10.7465 12.155 12.079 13.4767 12.079 15.1125C12.079 16.3241 11.3388 17.3594 10.2875 17.8131ZM17.6907 20.0417C17.6907 20.4858 17.3223 20.8542 16.8782 20.8542C16.434 20.8542 16.0657 20.4858 16.0657 20.0417V15.8167C16.0657 15.3725 16.434 15.0042 16.8782 15.0042C17.3223 15.0042 17.6907 15.3725 17.6907 15.8167V20.0417ZM16.8782 13.8342C15.2532 13.8342 13.9207 12.5125 13.9207 10.8767C13.9207 9.66511 14.6609 8.6298 15.7122 8.17606C15.9165 8.08785 16.0657 7.89598 16.0657 7.67338V5.95834C16.0657 5.51417 16.434 5.14584 16.8782 5.14584C17.3223 5.14584 17.6907 5.51417 17.6907 5.95834V7.68421C17.6907 7.90681 17.8398 8.09865 18.0441 8.187C19.0935 8.6408 19.8248 9.67604 19.8248 10.8875C19.8248 12.5125 18.5032 13.8342 16.8782 13.8342Z" fill="#2A2F35"/>
</svg>
