<svg width="80" height="80" viewBox="0 0 80 80" fill="none" xmlns="http://www.w3.org/2000/svg">
<g filter="url(#filter0_d_223_31753)">
<g filter="url(#filter1_dii_223_31753)">
<path d="M48.5243 46.1869C54.3096 44.9051 58.0335 42.0703 62.6796 35.4138C62.79 35.5651 62.9017 35.6925 62.9848 35.8364C64.0383 37.6516 65.08 39.4738 66.1452 41.2816C66.3561 41.639 66.3652 41.9208 66.1509 42.2825C65.2683 43.7738 64.4017 45.2756 63.5517 46.786C62.8343 48.0612 61.7748 48.6695 60.3043 48.6529C56.4013 48.609 52.4956 48.6686 48.5956 48.549C45.6156 48.4577 42.7048 47.8712 39.9517 46.6569C39.7469 46.5669 39.5474 46.466 39.3491 46.2816C42.3983 46.6703 45.44 46.8569 48.5243 46.1869Z" fill="#090912"/>
</g>
<g filter="url(#filter2_dii_223_31753)">
<path d="M42.6388 50.6243C44.937 51.3052 47.2305 51.6382 49.6949 51.6139C49.4044 52.1426 49.157 52.6091 48.8944 53.0665C48.0084 54.6095 47.1292 56.1565 46.2118 57.6808C46.0927 57.8795 45.7692 58.0652 45.537 58.0691C43.7114 58.0991 41.8853 58.083 40.0592 58.0821C38.8205 58.0817 37.8049 57.5969 37.1936 56.5217C35.0192 52.6973 32.8327 48.8782 30.7601 44.9986C29.694 43.003 29.0557 40.8212 28.6901 38.5756C28.6031 38.0417 28.5084 37.5086 28.4175 36.9756C28.5044 36.9495 28.5914 36.9234 28.6783 36.8973C28.7697 37.1013 28.8731 37.3008 28.9514 37.5099C30.4575 41.5356 32.7914 44.9526 36.2931 47.5134C38.2092 48.9147 40.3223 49.9152 42.6388 50.6243Z" fill="#0059B7"/>
</g>
<g filter="url(#filter3_dii_223_31753)">
<path d="M22.7397 48.5308C21.8966 48.686 21.4961 48.2938 21.1451 47.6334C20.3852 46.2034 19.5429 44.8173 18.7331 43.4138C18.1586 42.4182 17.9679 41.3277 18.543 40.3369C21.049 36.0177 23.2174 31.4834 26.3186 27.5382C27.4798 26.0612 28.9348 24.813 30.2739 23.4791C30.5135 23.2399 30.8426 23.0904 31.22 22.9517C24.7354 30.9808 24.2628 39.4721 29.0878 48.5308C26.9739 48.5308 24.8893 48.5308 22.7397 48.5308Z" fill="#090912"/>
</g>
<g filter="url(#filter4_dii_223_31753)">
<path d="M42.7283 6.37917C42.9565 6.37917 43.1178 6.39291 43.2761 6.37708C45.2865 6.17608 46.627 7.01126 47.5844 8.81317C49.3491 12.1343 51.3126 15.3493 53.0839 18.667C54.49 21.3004 55.397 24.1239 55.6939 27.1173C55.7096 27.2765 55.7222 27.4356 55.727 27.5952C55.7296 27.6795 55.7135 27.7647 55.6526 27.8782C54.09 23.3721 51.6109 19.5311 47.6613 16.7692C43.7422 14.0283 39.33 12.8623 34.4961 12.8449C35.7322 10.7038 36.9074 8.65161 38.1113 6.61626C38.1952 6.474 38.49 6.39469 38.6887 6.39165C40.0122 6.37148 41.3361 6.38 42.7283 6.37917Z" fill="#090912"/>
</g>
<g filter="url(#filter5_dii_223_31753)">
<path d="M60.9026 32.5052C58.3469 36.9486 54.3826 41.3795 52.9282 41.4413C59.4991 33.4943 59.9539 24.9999 55.143 15.9482C55.4413 15.9482 55.7021 15.9483 55.9626 15.9482C57.9482 15.9474 59.9334 15.9578 61.9187 15.9369C62.3521 15.9323 62.6174 16.0399 62.8408 16.4446C63.6669 17.9418 64.516 19.4276 65.3978 20.8926C66.203 22.2308 66.1234 23.5034 65.3439 24.8247C63.8495 27.3573 62.3987 29.9152 60.9026 32.5052Z" fill="#0059B7"/>
</g>
<g filter="url(#filter6_dii_223_31753)">
<path d="M18.5079 23.8869C17.7866 23.0604 17.8906 22.3404 18.4624 21.4812C19.3329 20.1737 20.0449 18.7615 20.85 17.4091C21.4414 16.4156 22.3498 15.8365 23.4982 15.8374C27.6984 15.8408 31.9 15.8381 36.0978 15.9554C38.4757 16.0219 40.8122 16.5009 43.0583 17.3247C43.6187 17.5302 44.1487 17.8178 44.7109 18.1827C34.47 16.4856 26.9228 20.4351 21.4981 29.0825C20.5049 27.3569 19.5187 25.6434 18.5079 23.8869Z" fill="#0059B7"/>
</g>
</g>
<defs>
<filter id="filter0_d_223_31753" x="5" y="1.34778" width="74.3076" height="77.7394" filterUnits="userSpaceOnUse" color-interpolation-filters="sRGB">
<feFlood flood-opacity="0" result="BackgroundImageFix"/>
<feColorMatrix in="SourceAlpha" type="matrix" values="0 0 0 0 0 0 0 0 0 0 0 0 0 0 0 0 0 0 127 0" result="hardAlpha"/>
<feOffset dy="8"/>
<feGaussianBlur stdDeviation="6.5"/>
<feComposite in2="hardAlpha" operator="out"/>
<feColorMatrix type="matrix" values="0 0 0 0 0.39691 0 0 0 0 0.555785 0 0 0 0 0.670833 0 0 0 0.15 0"/>
<feBlend mode="normal" in2="BackgroundImageFix" result="effect1_dropShadow_223_31753"/>
<feBlend mode="normal" in="SourceGraphic" in2="effect1_dropShadow_223_31753" result="shape"/>
</filter>
<filter id="filter1_dii_223_31753" x="21.3491" y="19.4138" width="60.9585" height="47.2395" filterUnits="userSpaceOnUse" color-interpolation-filters="sRGB">
<feFlood flood-opacity="0" result="BackgroundImageFix"/>
<feColorMatrix in="SourceAlpha" type="matrix" values="0 0 0 0 0 0 0 0 0 0 0 0 0 0 0 0 0 0 127 0" result="hardAlpha"/>
<feOffset dx="-6" dy="6"/>
<feGaussianBlur stdDeviation="6"/>
<feComposite in2="hardAlpha" operator="out"/>
<feColorMatrix type="matrix" values="0 0 0 0 0 0 0 0 0 0 0 0 0 0 0 0 0 0 0.25 0"/>
<feBlend mode="normal" in2="BackgroundImageFix" result="effect1_dropShadow_223_31753"/>
<feBlend mode="normal" in="SourceGraphic" in2="effect1_dropShadow_223_31753" result="shape"/>
<feColorMatrix in="SourceAlpha" type="matrix" values="0 0 0 0 0 0 0 0 0 0 0 0 0 0 0 0 0 0 127 0" result="hardAlpha"/>
<feOffset dx="16" dy="-16"/>
<feGaussianBlur stdDeviation="8"/>
<feComposite in2="hardAlpha" operator="arithmetic" k2="-1" k3="1"/>
<feColorMatrix type="matrix" values="0 0 0 0 0 0 0 0 0 0 0 0 0 0 0 0 0 0 0.25 0"/>
<feBlend mode="normal" in2="shape" result="effect2_innerShadow_223_31753"/>
<feColorMatrix in="SourceAlpha" type="matrix" values="0 0 0 0 0 0 0 0 0 0 0 0 0 0 0 0 0 0 127 0" result="hardAlpha"/>
<feOffset dx="-16" dy="16"/>
<feGaussianBlur stdDeviation="8"/>
<feComposite in2="hardAlpha" operator="arithmetic" k2="-1" k3="1"/>
<feColorMatrix type="matrix" values="0 0 0 0 0.702135 0 0 0 0 0.803073 0 0 0 0 0.920833 0 0 0 0.25 0"/>
<feBlend mode="normal" in2="effect2_innerShadow_223_31753" result="effect3_innerShadow_223_31753"/>
</filter>
<filter id="filter2_dii_223_31753" x="10.4175" y="20.8973" width="55.2773" height="55.1898" filterUnits="userSpaceOnUse" color-interpolation-filters="sRGB">
<feFlood flood-opacity="0" result="BackgroundImageFix"/>
<feColorMatrix in="SourceAlpha" type="matrix" values="0 0 0 0 0 0 0 0 0 0 0 0 0 0 0 0 0 0 127 0" result="hardAlpha"/>
<feOffset dx="-6" dy="6"/>
<feGaussianBlur stdDeviation="6"/>
<feComposite in2="hardAlpha" operator="out"/>
<feColorMatrix type="matrix" values="0 0 0 0 0 0 0 0 0 0 0 0 0 0 0 0 0 0 0.25 0"/>
<feBlend mode="normal" in2="BackgroundImageFix" result="effect1_dropShadow_223_31753"/>
<feBlend mode="normal" in="SourceGraphic" in2="effect1_dropShadow_223_31753" result="shape"/>
<feColorMatrix in="SourceAlpha" type="matrix" values="0 0 0 0 0 0 0 0 0 0 0 0 0 0 0 0 0 0 127 0" result="hardAlpha"/>
<feOffset dx="16" dy="-16"/>
<feGaussianBlur stdDeviation="8"/>
<feComposite in2="hardAlpha" operator="arithmetic" k2="-1" k3="1"/>
<feColorMatrix type="matrix" values="0 0 0 0 0 0 0 0 0 0 0 0 0 0 0 0 0 0 0.25 0"/>
<feBlend mode="normal" in2="shape" result="effect2_innerShadow_223_31753"/>
<feColorMatrix in="SourceAlpha" type="matrix" values="0 0 0 0 0 0 0 0 0 0 0 0 0 0 0 0 0 0 127 0" result="hardAlpha"/>
<feOffset dx="-16" dy="16"/>
<feGaussianBlur stdDeviation="8"/>
<feComposite in2="hardAlpha" operator="arithmetic" k2="-1" k3="1"/>
<feColorMatrix type="matrix" values="0 0 0 0 0.866667 0 0 0 0 0.928205 0 0 0 0 1 0 0 0 0.25 0"/>
<feBlend mode="normal" in2="effect2_innerShadow_223_31753" result="effect3_innerShadow_223_31753"/>
</filter>
<filter id="filter3_dii_223_31753" x="0.195312" y="6.95166" width="47.0249" height="59.613" filterUnits="userSpaceOnUse" color-interpolation-filters="sRGB">
<feFlood flood-opacity="0" result="BackgroundImageFix"/>
<feColorMatrix in="SourceAlpha" type="matrix" values="0 0 0 0 0 0 0 0 0 0 0 0 0 0 0 0 0 0 127 0" result="hardAlpha"/>
<feOffset dx="-6" dy="6"/>
<feGaussianBlur stdDeviation="6"/>
<feComposite in2="hardAlpha" operator="out"/>
<feColorMatrix type="matrix" values="0 0 0 0 0 0 0 0 0 0 0 0 0 0 0 0 0 0 0.25 0"/>
<feBlend mode="normal" in2="BackgroundImageFix" result="effect1_dropShadow_223_31753"/>
<feBlend mode="normal" in="SourceGraphic" in2="effect1_dropShadow_223_31753" result="shape"/>
<feColorMatrix in="SourceAlpha" type="matrix" values="0 0 0 0 0 0 0 0 0 0 0 0 0 0 0 0 0 0 127 0" result="hardAlpha"/>
<feOffset dx="16" dy="-16"/>
<feGaussianBlur stdDeviation="8"/>
<feComposite in2="hardAlpha" operator="arithmetic" k2="-1" k3="1"/>
<feColorMatrix type="matrix" values="0 0 0 0 0 0 0 0 0 0 0 0 0 0 0 0 0 0 0.25 0"/>
<feBlend mode="normal" in2="shape" result="effect2_innerShadow_223_31753"/>
<feColorMatrix in="SourceAlpha" type="matrix" values="0 0 0 0 0 0 0 0 0 0 0 0 0 0 0 0 0 0 127 0" result="hardAlpha"/>
<feOffset dx="-16" dy="16"/>
<feGaussianBlur stdDeviation="8"/>
<feComposite in2="hardAlpha" operator="arithmetic" k2="-1" k3="1"/>
<feColorMatrix type="matrix" values="0 0 0 0 0.629931 0 0 0 0 0.710347 0 0 0 0 0.804167 0 0 0 0.25 0"/>
<feBlend mode="normal" in2="effect2_innerShadow_223_31753" result="effect3_innerShadow_223_31753"/>
</filter>
<filter id="filter4_dii_223_31753" x="16.4961" y="-9.65222" width="55.231" height="55.5304" filterUnits="userSpaceOnUse" color-interpolation-filters="sRGB">
<feFlood flood-opacity="0" result="BackgroundImageFix"/>
<feColorMatrix in="SourceAlpha" type="matrix" values="0 0 0 0 0 0 0 0 0 0 0 0 0 0 0 0 0 0 127 0" result="hardAlpha"/>
<feOffset dx="-6" dy="6"/>
<feGaussianBlur stdDeviation="6"/>
<feComposite in2="hardAlpha" operator="out"/>
<feColorMatrix type="matrix" values="0 0 0 0 0 0 0 0 0 0 0 0 0 0 0 0 0 0 0.25 0"/>
<feBlend mode="normal" in2="BackgroundImageFix" result="effect1_dropShadow_223_31753"/>
<feBlend mode="normal" in="SourceGraphic" in2="effect1_dropShadow_223_31753" result="shape"/>
<feColorMatrix in="SourceAlpha" type="matrix" values="0 0 0 0 0 0 0 0 0 0 0 0 0 0 0 0 0 0 127 0" result="hardAlpha"/>
<feOffset dx="16" dy="-16"/>
<feGaussianBlur stdDeviation="8"/>
<feComposite in2="hardAlpha" operator="arithmetic" k2="-1" k3="1"/>
<feColorMatrix type="matrix" values="0 0 0 0 0 0 0 0 0 0 0 0 0 0 0 0 0 0 0.25 0"/>
<feBlend mode="normal" in2="shape" result="effect2_innerShadow_223_31753"/>
<feColorMatrix in="SourceAlpha" type="matrix" values="0 0 0 0 0 0 0 0 0 0 0 0 0 0 0 0 0 0 127 0" result="hardAlpha"/>
<feOffset dx="-16" dy="16"/>
<feGaussianBlur stdDeviation="8"/>
<feComposite in2="hardAlpha" operator="arithmetic" k2="-1" k3="1"/>
<feColorMatrix type="matrix" values="0 0 0 0 0.702135 0 0 0 0 0.803073 0 0 0 0 0.920833 0 0 0 0.25 0"/>
<feBlend mode="normal" in2="effect2_innerShadow_223_31753" result="effect3_innerShadow_223_31753"/>
</filter>
<filter id="filter5_dii_223_31753" x="34.9282" y="-0.0632324" width="47.0381" height="59.5045" filterUnits="userSpaceOnUse" color-interpolation-filters="sRGB">
<feFlood flood-opacity="0" result="BackgroundImageFix"/>
<feColorMatrix in="SourceAlpha" type="matrix" values="0 0 0 0 0 0 0 0 0 0 0 0 0 0 0 0 0 0 127 0" result="hardAlpha"/>
<feOffset dx="-6" dy="6"/>
<feGaussianBlur stdDeviation="6"/>
<feComposite in2="hardAlpha" operator="out"/>
<feColorMatrix type="matrix" values="0 0 0 0 0 0 0 0 0 0 0 0 0 0 0 0 0 0 0.25 0"/>
<feBlend mode="normal" in2="BackgroundImageFix" result="effect1_dropShadow_223_31753"/>
<feBlend mode="normal" in="SourceGraphic" in2="effect1_dropShadow_223_31753" result="shape"/>
<feColorMatrix in="SourceAlpha" type="matrix" values="0 0 0 0 0 0 0 0 0 0 0 0 0 0 0 0 0 0 127 0" result="hardAlpha"/>
<feOffset dx="16" dy="-16"/>
<feGaussianBlur stdDeviation="8"/>
<feComposite in2="hardAlpha" operator="arithmetic" k2="-1" k3="1"/>
<feColorMatrix type="matrix" values="0 0 0 0 0 0 0 0 0 0 0 0 0 0 0 0 0 0 0.25 0"/>
<feBlend mode="normal" in2="shape" result="effect2_innerShadow_223_31753"/>
<feColorMatrix in="SourceAlpha" type="matrix" values="0 0 0 0 0 0 0 0 0 0 0 0 0 0 0 0 0 0 127 0" result="hardAlpha"/>
<feOffset dx="-16" dy="16"/>
<feGaussianBlur stdDeviation="8"/>
<feComposite in2="hardAlpha" operator="arithmetic" k2="-1" k3="1"/>
<feColorMatrix type="matrix" values="0 0 0 0 0.866667 0 0 0 0 0.928205 0 0 0 0 1 0 0 0 0.25 0"/>
<feBlend mode="normal" in2="effect2_innerShadow_223_31753" result="effect3_innerShadow_223_31753"/>
</filter>
<filter id="filter6_dii_223_31753" x="0" y="-0.162598" width="60.7109" height="47.2451" filterUnits="userSpaceOnUse" color-interpolation-filters="sRGB">
<feFlood flood-opacity="0" result="BackgroundImageFix"/>
<feColorMatrix in="SourceAlpha" type="matrix" values="0 0 0 0 0 0 0 0 0 0 0 0 0 0 0 0 0 0 127 0" result="hardAlpha"/>
<feOffset dx="-6" dy="6"/>
<feGaussianBlur stdDeviation="6"/>
<feComposite in2="hardAlpha" operator="out"/>
<feColorMatrix type="matrix" values="0 0 0 0 0 0 0 0 0 0 0 0 0 0 0 0 0 0 0.25 0"/>
<feBlend mode="normal" in2="BackgroundImageFix" result="effect1_dropShadow_223_31753"/>
<feBlend mode="normal" in="SourceGraphic" in2="effect1_dropShadow_223_31753" result="shape"/>
<feColorMatrix in="SourceAlpha" type="matrix" values="0 0 0 0 0 0 0 0 0 0 0 0 0 0 0 0 0 0 127 0" result="hardAlpha"/>
<feOffset dx="16" dy="-16"/>
<feGaussianBlur stdDeviation="8"/>
<feComposite in2="hardAlpha" operator="arithmetic" k2="-1" k3="1"/>
<feColorMatrix type="matrix" values="0 0 0 0 0 0 0 0 0 0 0 0 0 0 0 0 0 0 0.25 0"/>
<feBlend mode="normal" in2="shape" result="effect2_innerShadow_223_31753"/>
<feColorMatrix in="SourceAlpha" type="matrix" values="0 0 0 0 0 0 0 0 0 0 0 0 0 0 0 0 0 0 127 0" result="hardAlpha"/>
<feOffset dx="-16" dy="16"/>
<feGaussianBlur stdDeviation="8"/>
<feComposite in2="hardAlpha" operator="arithmetic" k2="-1" k3="1"/>
<feColorMatrix type="matrix" values="0 0 0 0 0.866667 0 0 0 0 0.928205 0 0 0 0 1 0 0 0 0.25 0"/>
<feBlend mode="normal" in2="effect2_innerShadow_223_31753" result="effect3_innerShadow_223_31753"/>
</filter>
</defs>
</svg>
