<svg width="28" height="28" viewBox="0 0 28 28" fill="none" xmlns="http://www.w3.org/2000/svg">
<path d="M23.3801 7.95663L16.6601 3.25497C14.8284 1.97163 12.0168 2.04163 10.2551 3.40663L4.41011 7.9683C3.24344 8.8783 2.32178 10.745 2.32178 12.215V20.265C2.32178 23.24 4.73678 25.6666 7.71178 25.6666H20.2884C23.2634 25.6666 25.6784 23.2516 25.6784 20.2766V12.3666C25.6784 10.7916 24.6634 8.85497 23.3801 7.95663ZM19.6934 15.6333C19.6934 16.0883 19.3318 16.45 18.8768 16.45C18.4218 16.45 18.0601 16.0883 18.0601 15.6333V15.4233L14.8868 18.5966C14.7118 18.7716 14.4784 18.8533 14.2334 18.83C14.0001 18.8066 13.7784 18.6666 13.6501 18.4683L12.4601 16.695L9.68345 19.4716C9.52011 19.635 9.32178 19.705 9.11178 19.705C8.90178 19.705 8.69178 19.6233 8.54011 19.4716C8.22511 19.1566 8.22511 18.6433 8.54011 18.3166L12.0168 14.84C12.1918 14.665 12.4251 14.5833 12.6701 14.6066C12.9151 14.63 13.1368 14.7583 13.2651 14.9683L14.4551 16.7416L16.9168 14.28H16.7068C16.2518 14.28 15.8901 13.9183 15.8901 13.4633C15.8901 13.0083 16.2518 12.6466 16.7068 12.6466H18.8768C18.9818 12.6466 19.0868 12.67 19.1918 12.705C19.3901 12.7866 19.5534 12.95 19.6351 13.1483C19.6818 13.2533 19.6934 13.3583 19.6934 13.4633V15.6333Z" fill="#2A2F35"/>
</svg>
