<svg width="20" height="20" viewBox="0 0 20 20" fill="none" xmlns="http://www.w3.org/2000/svg">
<path d="M13.3333 18.9583H9.16667C8.825 18.9583 8.54167 18.675 8.54167 18.3333C8.54167 17.9916 8.825 17.7083 9.16667 17.7083H13.3333C15.7167 17.7083 16.875 16.55 16.875 14.1666V5.83329C16.875 3.44996 15.7167 2.29163 13.3333 2.29163H6.66667C4.28333 2.29163 3.125 3.44996 3.125 5.83329V11.6666C3.125 12.0083 2.84167 12.2916 2.5 12.2916C2.15833 12.2916 1.875 12.0083 1.875 11.6666V5.83329C1.875 2.79163 3.625 1.04163 6.66667 1.04163H13.3333C16.375 1.04163 18.125 2.79163 18.125 5.83329V14.1666C18.125 17.2083 16.375 18.9583 13.3333 18.9583Z" fill="#292D32"/>
<path d="M15.4167 7.70833H13.75C12.4833 7.70833 11.4583 6.68333 11.4583 5.41667V3.75C11.4583 3.40833 11.7417 3.125 12.0833 3.125C12.425 3.125 12.7083 3.40833 12.7083 3.75V5.41667C12.7083 5.99167 13.175 6.45833 13.75 6.45833H15.4167C15.7583 6.45833 16.0417 6.74167 16.0417 7.08333C16.0417 7.425 15.7583 7.70833 15.4167 7.70833Z" fill="#292D32"/>
<path d="M3.33328 18.125C3.17495 18.125 3.01662 18.0667 2.89162 17.9417L1.22495 16.275C0.983285 16.0333 0.983285 15.6333 1.22495 15.3916L2.89162 13.725C3.13328 13.4833 3.53328 13.4833 3.77495 13.725C4.01662 13.9666 4.01662 14.3667 3.77495 14.6083L2.54995 15.8333L3.77495 17.0583C4.01662 17.3 4.01662 17.7 3.77495 17.9417C3.64995 18.0667 3.49162 18.125 3.33328 18.125Z" fill="#292D32"/>
<path d="M5.83327 18.125C5.67494 18.125 5.51661 18.0667 5.39161 17.9417C5.14994 17.7 5.14994 17.3 5.39161 17.0583L6.61661 15.8333L5.39161 14.6083C5.14994 14.3667 5.14994 13.9666 5.39161 13.725C5.63327 13.4833 6.03327 13.4833 6.27494 13.725L7.94161 15.3916C8.18327 15.6333 8.18327 16.0333 7.94161 16.275L6.27494 17.9417C6.14994 18.0667 5.99161 18.125 5.83327 18.125Z" fill="#292D32"/>
</svg>
