<svg width="20" height="20" viewBox="0 0 20 20" fill="none" xmlns="http://www.w3.org/2000/svg">
<path d="M11.6667 5.62496H8.33332C7.53332 5.62496 6.04166 5.62496 6.04166 3.33329C6.04166 1.04163 7.53332 1.04163 8.33332 1.04163H11.6667C12.4667 1.04163 13.9583 1.04163 13.9583 3.33329C13.9583 4.13329 13.9583 5.62496 11.6667 5.62496ZM8.33332 2.29163C7.50832 2.29163 7.29166 2.29163 7.29166 3.33329C7.29166 4.37496 7.50832 4.37496 8.33332 4.37496H11.6667C12.7083 4.37496 12.7083 4.15829 12.7083 3.33329C12.7083 2.29163 12.4917 2.29163 11.6667 2.29163H8.33332Z" fill="#292D32"/>
<path d="M11.6667 18.9583H7.5C2.81667 18.9583 1.875 16.8083 1.875 13.3333V8.33331C1.875 4.53331 3.25 2.90831 6.63333 2.73331C6.95833 2.71664 7.275 2.97497 7.29167 3.32497C7.30833 3.67497 7.04167 3.95831 6.7 3.97497C4.33333 4.10831 3.125 4.81664 3.125 8.33331V13.3333C3.125 16.4166 3.73333 17.7083 7.5 17.7083H11.6667C12.0083 17.7083 12.2917 17.9916 12.2917 18.3333C12.2917 18.675 12.0083 18.9583 11.6667 18.9583Z" fill="#292D32"/>
<path d="M17.5 13.125C17.1583 13.125 16.875 12.8417 16.875 12.5V8.33332C16.875 4.81665 15.6667 4.10832 13.3 3.97498C12.9583 3.95832 12.6917 3.65832 12.7083 3.31665C12.725 2.97498 13.025 2.70832 13.3667 2.72498C16.75 2.90832 18.125 4.53332 18.125 8.32498V12.4917C18.125 12.8417 17.8417 13.125 17.5 13.125Z" fill="#292D32"/>
<path d="M12.5 16.4584C12.1583 16.4584 11.875 16.175 11.875 15.8334V13.3334C11.875 12.9917 12.1583 12.7084 12.5 12.7084H15C15.3417 12.7084 15.625 12.9917 15.625 13.3334C15.625 13.675 15.3417 13.9584 15 13.9584H13.125V15.8334C13.125 16.175 12.8417 16.4584 12.5 16.4584Z" fill="#292D32"/>
<path d="M17.5 18.9584C17.3417 18.9584 17.1833 18.9 17.0583 18.775L12.0917 13.8084C11.85 13.5667 11.85 13.1667 12.0917 12.925C12.3333 12.6834 12.7333 12.6834 12.975 12.925L17.9417 17.8917C18.1833 18.1334 18.1833 18.5334 17.9417 18.775C17.8167 18.9 17.6583 18.9584 17.5 18.9584Z" fill="#292D32"/>
</svg>
