<svg width="26" height="26" viewBox="0 0 26 26" fill="none" xmlns="http://www.w3.org/2000/svg">
<path d="M10.0859 15.9251L11.7109 17.5501L16.0443 13.2168" stroke="#2A2F35" stroke-width="1.5" stroke-linecap="round" stroke-linejoin="round"/>
<path d="M10.8332 6.50033H15.1665C17.3332 6.50033 17.3332 5.41699 17.3332 4.33366C17.3332 2.16699 16.2498 2.16699 15.1665 2.16699H10.8332C9.74984 2.16699 8.6665 2.16699 8.6665 4.33366C8.6665 6.50033 9.74984 6.50033 10.8332 6.50033Z" stroke="#2A2F35" stroke-width="1.5" stroke-miterlimit="10" stroke-linecap="round" stroke-linejoin="round"/>
<path d="M17.3333 4.35547C20.9408 4.55047 22.75 5.88297 22.75 10.8338V17.3338C22.75 21.6671 21.6667 23.8338 16.25 23.8338H9.75C4.33333 23.8338 3.25 21.6671 3.25 17.3338V10.8338C3.25 5.8938 5.05917 4.55047 8.66667 4.35547" stroke="#2A2F35" stroke-width="1.5" stroke-miterlimit="10" stroke-linecap="round" stroke-linejoin="round"/>
</svg>
